G04 EAGLE Gerber RS-274X export*
G75*
%MOMM*%
%FSLAX34Y34*%
%LPD*%
%INTop Copper*%
%IPPOS*%
%AMOC8*
5,1,8,0,0,1.08239X$1,22.5*%
G01*
%ADD10C,2.540000*%
%ADD11R,2.000000X2.000000*%
%ADD12C,2.000000*%
%ADD13C,1.879600*%
%ADD14R,1.450000X0.700000*%
%ADD15C,0.152400*%

G36*
X522615Y52709D02*
X522615Y52709D01*
X522635Y52707D01*
X522736Y52729D01*
X522838Y52745D01*
X522856Y52755D01*
X522875Y52759D01*
X522964Y52812D01*
X523056Y52861D01*
X523069Y52875D01*
X523086Y52885D01*
X523154Y52964D01*
X523225Y53039D01*
X523233Y53057D01*
X523246Y53072D01*
X523285Y53168D01*
X523329Y53262D01*
X523331Y53282D01*
X523338Y53300D01*
X523357Y53467D01*
X523357Y1017971D01*
X523354Y1017990D01*
X523356Y1018010D01*
X523334Y1018111D01*
X523317Y1018213D01*
X523308Y1018231D01*
X523303Y1018250D01*
X523250Y1018339D01*
X523202Y1018431D01*
X523188Y1018444D01*
X523177Y1018461D01*
X523099Y1018529D01*
X523024Y1018600D01*
X523006Y1018608D01*
X522990Y1018621D01*
X522894Y1018660D01*
X522801Y1018704D01*
X522781Y1018706D01*
X522762Y1018713D01*
X522596Y1018732D01*
X-137033Y1018732D01*
X-137053Y1018729D01*
X-137072Y1018731D01*
X-137174Y1018709D01*
X-137276Y1018692D01*
X-137293Y1018683D01*
X-137313Y1018678D01*
X-137402Y1018625D01*
X-137493Y1018577D01*
X-137507Y1018563D01*
X-137524Y1018552D01*
X-137591Y1018474D01*
X-137663Y1018399D01*
X-137671Y1018381D01*
X-137684Y1018365D01*
X-137723Y1018269D01*
X-137766Y1018176D01*
X-137768Y1018156D01*
X-137776Y1018137D01*
X-137794Y1017971D01*
X-137794Y697540D01*
X-137783Y697469D01*
X-137781Y697398D01*
X-137763Y697349D01*
X-137755Y697297D01*
X-137721Y697234D01*
X-137696Y697167D01*
X-137664Y697126D01*
X-137639Y697080D01*
X-137587Y697030D01*
X-137543Y696974D01*
X-137499Y696946D01*
X-137461Y696910D01*
X-137396Y696880D01*
X-137336Y696841D01*
X-137285Y696829D01*
X-137238Y696807D01*
X-137167Y696799D01*
X-137097Y696781D01*
X-137045Y696785D01*
X-136994Y696780D01*
X-136923Y696795D01*
X-136852Y696801D01*
X-136804Y696821D01*
X-136753Y696832D01*
X-136692Y696869D01*
X-136626Y696897D01*
X-136570Y696942D01*
X-136542Y696958D01*
X-136527Y696976D01*
X-136495Y697002D01*
X-133492Y700005D01*
X-133448Y700066D01*
X-133414Y700101D01*
X-133400Y700131D01*
X-133354Y700193D01*
X-133352Y700199D01*
X-133348Y700204D01*
X-133314Y700316D01*
X-133313Y700319D01*
X-133310Y700324D01*
X-133310Y700328D01*
X-133278Y700427D01*
X-133278Y700433D01*
X-133276Y700439D01*
X-133279Y700556D01*
X-133280Y700673D01*
X-133282Y700680D01*
X-133282Y700685D01*
X-133289Y700703D01*
X-133327Y700834D01*
X-134748Y704265D01*
X-134748Y708610D01*
X-133085Y712625D01*
X-130012Y715697D01*
X-125998Y717360D01*
X-121652Y717360D01*
X-117638Y715697D01*
X-114778Y712837D01*
X-114720Y712796D01*
X-114668Y712746D01*
X-114620Y712724D01*
X-114578Y712694D01*
X-114510Y712673D01*
X-114445Y712643D01*
X-114393Y712637D01*
X-114343Y712621D01*
X-114271Y712623D01*
X-114200Y712615D01*
X-114149Y712626D01*
X-114097Y712628D01*
X-114030Y712652D01*
X-113960Y712668D01*
X-113915Y712694D01*
X-113866Y712712D01*
X-113810Y712757D01*
X-113749Y712794D01*
X-113715Y712833D01*
X-113674Y712866D01*
X-113635Y712926D01*
X-113589Y712981D01*
X-113569Y713029D01*
X-113541Y713073D01*
X-113524Y713142D01*
X-113497Y713209D01*
X-113489Y713280D01*
X-113481Y713311D01*
X-113483Y713335D01*
X-113478Y713376D01*
X-113478Y717942D01*
X-113493Y718032D01*
X-113500Y718123D01*
X-113513Y718152D01*
X-113518Y718184D01*
X-113561Y718265D01*
X-113596Y718349D01*
X-113622Y718381D01*
X-113633Y718402D01*
X-113656Y718424D01*
X-113701Y718480D01*
X-117392Y722171D01*
X-117486Y722238D01*
X-117581Y722309D01*
X-117587Y722311D01*
X-117592Y722314D01*
X-117703Y722348D01*
X-117815Y722385D01*
X-117821Y722385D01*
X-117827Y722387D01*
X-117944Y722384D01*
X-118061Y722382D01*
X-118068Y722380D01*
X-118073Y722380D01*
X-118090Y722374D01*
X-118222Y722336D01*
X-121652Y720915D01*
X-125998Y720915D01*
X-130012Y722578D01*
X-133085Y725650D01*
X-134748Y729665D01*
X-134748Y734010D01*
X-133085Y738025D01*
X-130012Y741097D01*
X-125998Y742760D01*
X-121652Y742760D01*
X-117638Y741097D01*
X-114565Y738025D01*
X-112902Y734010D01*
X-112902Y729665D01*
X-114323Y726234D01*
X-114350Y726121D01*
X-114378Y726007D01*
X-114378Y726001D01*
X-114379Y725995D01*
X-114368Y725878D01*
X-114359Y725762D01*
X-114357Y725756D01*
X-114356Y725750D01*
X-114308Y725642D01*
X-114263Y725536D01*
X-114258Y725530D01*
X-114256Y725525D01*
X-114244Y725511D01*
X-114158Y725405D01*
X-108905Y720151D01*
X-108905Y326771D01*
X-108890Y326681D01*
X-108883Y326590D01*
X-108870Y326560D01*
X-108865Y326528D01*
X-108822Y326448D01*
X-108787Y326364D01*
X-108761Y326332D01*
X-108750Y326311D01*
X-108727Y326289D01*
X-108718Y326277D01*
X-108710Y326265D01*
X-108702Y326258D01*
X-108682Y326233D01*
X-61024Y278575D01*
X-60966Y278533D01*
X-60914Y278484D01*
X-60867Y278462D01*
X-60825Y278432D01*
X-60756Y278410D01*
X-60691Y278380D01*
X-60639Y278374D01*
X-60589Y278359D01*
X-60518Y278361D01*
X-60447Y278353D01*
X-60396Y278364D01*
X-60344Y278366D01*
X-60276Y278390D01*
X-60206Y278405D01*
X-60161Y278432D01*
X-60113Y278450D01*
X-60057Y278495D01*
X-59995Y278532D01*
X-59961Y278571D01*
X-59921Y278604D01*
X-59882Y278664D01*
X-59835Y278718D01*
X-59816Y278767D01*
X-59788Y278811D01*
X-59770Y278880D01*
X-59743Y278947D01*
X-59735Y279018D01*
X-59727Y279049D01*
X-59729Y279072D01*
X-59725Y279113D01*
X-59725Y296382D01*
X-58832Y297275D01*
X-40225Y297275D01*
X-40134Y297289D01*
X-40044Y297297D01*
X-40014Y297309D01*
X-39982Y297314D01*
X-39901Y297357D01*
X-39817Y297393D01*
X-39785Y297419D01*
X-39764Y297430D01*
X-39742Y297453D01*
X-39686Y297498D01*
X-37444Y299740D01*
X-37391Y299814D01*
X-37331Y299884D01*
X-37319Y299914D01*
X-37300Y299940D01*
X-37273Y300027D01*
X-37239Y300112D01*
X-37235Y300153D01*
X-37228Y300175D01*
X-37229Y300207D01*
X-37221Y300279D01*
X-37221Y374468D01*
X-37236Y374564D01*
X-37246Y374661D01*
X-37256Y374685D01*
X-37260Y374711D01*
X-37306Y374797D01*
X-37346Y374886D01*
X-37363Y374905D01*
X-37376Y374928D01*
X-37446Y374995D01*
X-37512Y375067D01*
X-37535Y375080D01*
X-37554Y375098D01*
X-37642Y375139D01*
X-37727Y375186D01*
X-37753Y375190D01*
X-37777Y375201D01*
X-37874Y375212D01*
X-37970Y375229D01*
X-37995Y375225D01*
X-38021Y375228D01*
X-38117Y375208D01*
X-38213Y375194D01*
X-38236Y375182D01*
X-38262Y375176D01*
X-38345Y375126D01*
X-38432Y375082D01*
X-38450Y375063D01*
X-38473Y375050D01*
X-38536Y374976D01*
X-38604Y374906D01*
X-38620Y374878D01*
X-38633Y374863D01*
X-38645Y374832D01*
X-38685Y374759D01*
X-39287Y373307D01*
X-43107Y369487D01*
X-48099Y367419D01*
X-53501Y367419D01*
X-58493Y369487D01*
X-62313Y373307D01*
X-64381Y378299D01*
X-64381Y383701D01*
X-62313Y388693D01*
X-58493Y392513D01*
X-53501Y394581D01*
X-48235Y394581D01*
X-48165Y394592D01*
X-48093Y394594D01*
X-48044Y394612D01*
X-47993Y394620D01*
X-47929Y394654D01*
X-47862Y394679D01*
X-47821Y394711D01*
X-47775Y394736D01*
X-47726Y394788D01*
X-47670Y394832D01*
X-47642Y394876D01*
X-47606Y394914D01*
X-47576Y394979D01*
X-47537Y395039D01*
X-47524Y395090D01*
X-47502Y395137D01*
X-47494Y395208D01*
X-47477Y395278D01*
X-47481Y395330D01*
X-47475Y395381D01*
X-47490Y395452D01*
X-47496Y395523D01*
X-47516Y395571D01*
X-47527Y395622D01*
X-47564Y395683D01*
X-47592Y395749D01*
X-47637Y395805D01*
X-47654Y395833D01*
X-47671Y395848D01*
X-47697Y395880D01*
X-50159Y398342D01*
X-52325Y403571D01*
X-52325Y409229D01*
X-50159Y414458D01*
X-46158Y418459D01*
X-40929Y420625D01*
X-35271Y420625D01*
X-30042Y418459D01*
X-26041Y414458D01*
X-23875Y409229D01*
X-23875Y403571D01*
X-26041Y398342D01*
X-30042Y394341D01*
X-32177Y393457D01*
X-32277Y393395D01*
X-32377Y393335D01*
X-32381Y393330D01*
X-32386Y393327D01*
X-32461Y393237D01*
X-32537Y393148D01*
X-32539Y393142D01*
X-32543Y393137D01*
X-32585Y393029D01*
X-32629Y392920D01*
X-32630Y392912D01*
X-32631Y392908D01*
X-32632Y392890D01*
X-32647Y392753D01*
X-32647Y298069D01*
X-36452Y294264D01*
X-36505Y294190D01*
X-36565Y294120D01*
X-36577Y294090D01*
X-36596Y294064D01*
X-36623Y293977D01*
X-36657Y293892D01*
X-36661Y293851D01*
X-36668Y293829D01*
X-36667Y293797D01*
X-36675Y293725D01*
X-36675Y275118D01*
X-37568Y274225D01*
X-54837Y274225D01*
X-54907Y274214D01*
X-54979Y274212D01*
X-55028Y274194D01*
X-55079Y274186D01*
X-55143Y274152D01*
X-55210Y274127D01*
X-55251Y274095D01*
X-55297Y274070D01*
X-55346Y274018D01*
X-55402Y273974D01*
X-55430Y273930D01*
X-55466Y273892D01*
X-55496Y273827D01*
X-55535Y273767D01*
X-55548Y273716D01*
X-55570Y273669D01*
X-55578Y273598D01*
X-55595Y273528D01*
X-55591Y273476D01*
X-55597Y273425D01*
X-55582Y273354D01*
X-55576Y273283D01*
X-55556Y273235D01*
X-55545Y273184D01*
X-55508Y273123D01*
X-55480Y273057D01*
X-55435Y273001D01*
X-55418Y272973D01*
X-55401Y272958D01*
X-55375Y272926D01*
X-11273Y228824D01*
X-11199Y228771D01*
X-11129Y228711D01*
X-11099Y228699D01*
X-11073Y228680D01*
X-10986Y228653D01*
X-10901Y228619D01*
X-10860Y228615D01*
X-10838Y228608D01*
X-10806Y228609D01*
X-10735Y228601D01*
X16145Y228601D01*
X16215Y228612D01*
X16287Y228614D01*
X16336Y228632D01*
X16387Y228640D01*
X16451Y228674D01*
X16518Y228699D01*
X16559Y228731D01*
X16605Y228756D01*
X16654Y228807D01*
X16710Y228852D01*
X16738Y228896D01*
X16774Y228934D01*
X16804Y228999D01*
X16843Y229059D01*
X16856Y229110D01*
X16878Y229157D01*
X16886Y229228D01*
X16903Y229298D01*
X16899Y229350D01*
X16905Y229401D01*
X16890Y229472D01*
X16884Y229543D01*
X16864Y229591D01*
X16853Y229642D01*
X16816Y229703D01*
X16788Y229769D01*
X16743Y229825D01*
X16726Y229853D01*
X16709Y229868D01*
X16683Y229900D01*
X13341Y233242D01*
X11175Y238471D01*
X11175Y244129D01*
X13341Y249358D01*
X17342Y253359D01*
X22571Y255525D01*
X24318Y255525D01*
X24338Y255528D01*
X24358Y255526D01*
X24459Y255548D01*
X24561Y255564D01*
X24578Y255574D01*
X24598Y255578D01*
X24687Y255631D01*
X24778Y255680D01*
X24792Y255694D01*
X24809Y255704D01*
X24876Y255783D01*
X24948Y255858D01*
X24956Y255876D01*
X24969Y255891D01*
X25008Y255987D01*
X25051Y256081D01*
X25053Y256101D01*
X25061Y256119D01*
X25079Y256286D01*
X25079Y371911D01*
X25075Y371934D01*
X25078Y371958D01*
X25056Y372055D01*
X25040Y372153D01*
X25028Y372175D01*
X25023Y372198D01*
X24971Y372283D01*
X24924Y372371D01*
X24907Y372387D01*
X24894Y372408D01*
X24818Y372472D01*
X24746Y372540D01*
X24724Y372550D01*
X24706Y372566D01*
X24613Y372602D01*
X24523Y372644D01*
X24499Y372646D01*
X24477Y372655D01*
X24377Y372660D01*
X24279Y372671D01*
X24255Y372666D01*
X24231Y372667D01*
X24135Y372640D01*
X24038Y372618D01*
X24018Y372606D01*
X23994Y372600D01*
X23912Y372543D01*
X23827Y372492D01*
X23811Y372474D01*
X23792Y372460D01*
X23732Y372381D01*
X23667Y372305D01*
X23658Y372283D01*
X23644Y372264D01*
X23583Y372108D01*
X23372Y371319D01*
X20070Y365600D01*
X15400Y360930D01*
X9681Y357628D01*
X3302Y355919D01*
X-3302Y355919D01*
X-9681Y357628D01*
X-15400Y360930D01*
X-20070Y365600D01*
X-23372Y371319D01*
X-25081Y377698D01*
X-25081Y384302D01*
X-23372Y390681D01*
X-20070Y396400D01*
X-15400Y401070D01*
X-9681Y404372D01*
X-3302Y406081D01*
X3302Y406081D01*
X9681Y404372D01*
X15400Y401070D01*
X20070Y396400D01*
X23372Y390681D01*
X23583Y389892D01*
X23593Y389871D01*
X23597Y389847D01*
X23643Y389759D01*
X23684Y389668D01*
X23700Y389651D01*
X23712Y389629D01*
X23784Y389561D01*
X23851Y389488D01*
X23873Y389477D01*
X23890Y389460D01*
X23980Y389418D01*
X24067Y389371D01*
X24091Y389367D01*
X24113Y389356D01*
X24212Y389345D01*
X24310Y389328D01*
X24334Y389332D01*
X24358Y389329D01*
X24454Y389350D01*
X24553Y389365D01*
X24574Y389376D01*
X24598Y389382D01*
X24683Y389432D01*
X24772Y389478D01*
X24788Y389495D01*
X24809Y389508D01*
X24874Y389583D01*
X24943Y389655D01*
X24953Y389676D01*
X24969Y389695D01*
X25006Y389787D01*
X25049Y389877D01*
X25052Y389900D01*
X25061Y389923D01*
X25079Y390089D01*
X25079Y416814D01*
X25076Y416834D01*
X25078Y416853D01*
X25056Y416955D01*
X25040Y417057D01*
X25030Y417074D01*
X25026Y417094D01*
X24973Y417183D01*
X24924Y417274D01*
X24910Y417288D01*
X24900Y417305D01*
X24821Y417372D01*
X24746Y417444D01*
X24728Y417452D01*
X24713Y417465D01*
X24617Y417504D01*
X24523Y417547D01*
X24503Y417549D01*
X24485Y417557D01*
X24318Y417575D01*
X22571Y417575D01*
X17342Y419741D01*
X13341Y423742D01*
X11175Y428971D01*
X11175Y434629D01*
X13341Y439858D01*
X17342Y443859D01*
X22571Y446025D01*
X24318Y446025D01*
X24338Y446028D01*
X24358Y446026D01*
X24459Y446048D01*
X24561Y446064D01*
X24578Y446074D01*
X24598Y446078D01*
X24687Y446131D01*
X24778Y446180D01*
X24792Y446194D01*
X24809Y446204D01*
X24876Y446283D01*
X24948Y446358D01*
X24956Y446376D01*
X24969Y446391D01*
X25008Y446487D01*
X25051Y446581D01*
X25053Y446601D01*
X25061Y446619D01*
X25079Y446786D01*
X25079Y562411D01*
X25075Y562434D01*
X25078Y562458D01*
X25056Y562555D01*
X25040Y562653D01*
X25028Y562675D01*
X25023Y562698D01*
X24971Y562783D01*
X24924Y562871D01*
X24907Y562887D01*
X24894Y562908D01*
X24818Y562972D01*
X24746Y563040D01*
X24724Y563050D01*
X24706Y563066D01*
X24613Y563102D01*
X24523Y563144D01*
X24499Y563146D01*
X24477Y563155D01*
X24377Y563160D01*
X24279Y563171D01*
X24255Y563166D01*
X24231Y563167D01*
X24136Y563140D01*
X24038Y563119D01*
X24017Y563106D01*
X23994Y563100D01*
X23913Y563043D01*
X23827Y562992D01*
X23811Y562974D01*
X23792Y562960D01*
X23732Y562881D01*
X23667Y562805D01*
X23658Y562783D01*
X23644Y562764D01*
X23583Y562608D01*
X23372Y561819D01*
X20070Y556100D01*
X15400Y551430D01*
X9681Y548128D01*
X3302Y546419D01*
X-3302Y546419D01*
X-9681Y548128D01*
X-15400Y551430D01*
X-20070Y556100D01*
X-23372Y561819D01*
X-25081Y568198D01*
X-25081Y574802D01*
X-23372Y581181D01*
X-20070Y586900D01*
X-15400Y591570D01*
X-9681Y594872D01*
X-3302Y596581D01*
X3302Y596581D01*
X9681Y594872D01*
X15400Y591570D01*
X20070Y586900D01*
X23372Y581181D01*
X23583Y580392D01*
X23593Y580370D01*
X23597Y580347D01*
X23643Y580259D01*
X23684Y580168D01*
X23700Y580151D01*
X23712Y580129D01*
X23784Y580061D01*
X23851Y579988D01*
X23873Y579977D01*
X23890Y579960D01*
X23980Y579918D01*
X24067Y579871D01*
X24091Y579866D01*
X24113Y579856D01*
X24212Y579845D01*
X24310Y579828D01*
X24334Y579832D01*
X24358Y579829D01*
X24454Y579850D01*
X24553Y579865D01*
X24574Y579876D01*
X24598Y579881D01*
X24683Y579932D01*
X24772Y579978D01*
X24788Y579995D01*
X24809Y580008D01*
X24874Y580083D01*
X24943Y580155D01*
X24953Y580176D01*
X24969Y580195D01*
X25006Y580287D01*
X25049Y580376D01*
X25052Y580400D01*
X25061Y580423D01*
X25079Y580589D01*
X25079Y607314D01*
X25076Y607334D01*
X25078Y607353D01*
X25056Y607455D01*
X25040Y607557D01*
X25030Y607574D01*
X25026Y607594D01*
X24973Y607683D01*
X24924Y607774D01*
X24910Y607788D01*
X24900Y607805D01*
X24821Y607872D01*
X24746Y607944D01*
X24728Y607952D01*
X24713Y607965D01*
X24617Y608004D01*
X24523Y608047D01*
X24503Y608049D01*
X24485Y608057D01*
X24318Y608075D01*
X22571Y608075D01*
X17342Y610241D01*
X13341Y614242D01*
X11145Y619543D01*
X11084Y619643D01*
X11024Y619743D01*
X11019Y619747D01*
X11015Y619752D01*
X10926Y619827D01*
X10837Y619903D01*
X10831Y619905D01*
X10826Y619909D01*
X10718Y619951D01*
X10609Y619995D01*
X10601Y619996D01*
X10596Y619997D01*
X10578Y619998D01*
X10442Y620013D01*
X10165Y620013D01*
X8603Y621576D01*
X-117392Y747571D01*
X-117486Y747638D01*
X-117581Y747709D01*
X-117587Y747711D01*
X-117592Y747714D01*
X-117703Y747748D01*
X-117815Y747785D01*
X-117821Y747785D01*
X-117827Y747787D01*
X-117944Y747784D01*
X-118061Y747782D01*
X-118068Y747780D01*
X-118073Y747780D01*
X-118090Y747774D01*
X-118222Y747736D01*
X-121652Y746315D01*
X-125998Y746315D01*
X-130012Y747978D01*
X-133085Y751050D01*
X-134748Y755065D01*
X-134748Y759410D01*
X-133085Y763425D01*
X-130012Y766497D01*
X-125998Y768160D01*
X-121652Y768160D01*
X-117638Y766497D01*
X-114565Y763425D01*
X-112902Y759410D01*
X-112902Y755065D01*
X-114323Y751634D01*
X-114350Y751521D01*
X-114378Y751407D01*
X-114378Y751401D01*
X-114379Y751395D01*
X-114368Y751278D01*
X-114359Y751162D01*
X-114357Y751156D01*
X-114356Y751150D01*
X-114308Y751042D01*
X-114263Y750936D01*
X-114258Y750930D01*
X-114256Y750925D01*
X-114244Y750911D01*
X-114158Y750805D01*
X10470Y626177D01*
X10507Y626150D01*
X10538Y626116D01*
X10606Y626078D01*
X10669Y626033D01*
X10713Y626020D01*
X10754Y625997D01*
X10830Y625984D01*
X10905Y625961D01*
X10950Y625962D01*
X10996Y625954D01*
X11073Y625965D01*
X11150Y625967D01*
X11194Y625983D01*
X11239Y625990D01*
X11308Y626025D01*
X11381Y626052D01*
X11417Y626080D01*
X11458Y626101D01*
X11513Y626157D01*
X11573Y626205D01*
X11598Y626244D01*
X11630Y626277D01*
X11696Y626397D01*
X11706Y626412D01*
X11708Y626417D01*
X11711Y626424D01*
X13341Y630358D01*
X17342Y634359D01*
X22571Y636525D01*
X28229Y636525D01*
X33458Y634359D01*
X37459Y630358D01*
X39625Y625129D01*
X39625Y619471D01*
X37459Y614242D01*
X33458Y610241D01*
X30123Y608859D01*
X30023Y608798D01*
X29923Y608738D01*
X29919Y608733D01*
X29914Y608730D01*
X29839Y608640D01*
X29763Y608551D01*
X29761Y608545D01*
X29757Y608540D01*
X29715Y608432D01*
X29671Y608323D01*
X29670Y608315D01*
X29669Y608311D01*
X29668Y608292D01*
X29653Y608156D01*
X29653Y445944D01*
X29672Y445829D01*
X29689Y445713D01*
X29692Y445707D01*
X29693Y445701D01*
X29747Y445598D01*
X29800Y445494D01*
X29805Y445489D01*
X29808Y445484D01*
X29892Y445404D01*
X29976Y445321D01*
X29982Y445318D01*
X29986Y445314D01*
X30003Y445307D01*
X30123Y445241D01*
X33458Y443859D01*
X37459Y439858D01*
X39625Y434629D01*
X39625Y428971D01*
X37459Y423742D01*
X33458Y419741D01*
X30123Y418359D01*
X30023Y418298D01*
X29923Y418238D01*
X29919Y418233D01*
X29914Y418230D01*
X29839Y418140D01*
X29763Y418051D01*
X29761Y418045D01*
X29757Y418040D01*
X29715Y417932D01*
X29671Y417823D01*
X29670Y417815D01*
X29669Y417811D01*
X29668Y417792D01*
X29653Y417656D01*
X29653Y255444D01*
X29672Y255329D01*
X29689Y255213D01*
X29692Y255207D01*
X29693Y255201D01*
X29747Y255098D01*
X29800Y254994D01*
X29805Y254989D01*
X29808Y254984D01*
X29892Y254904D01*
X29976Y254821D01*
X29982Y254818D01*
X29986Y254814D01*
X30003Y254807D01*
X30123Y254741D01*
X33458Y253359D01*
X37459Y249358D01*
X39625Y244129D01*
X39625Y238471D01*
X37459Y233242D01*
X34117Y229900D01*
X34075Y229842D01*
X34026Y229790D01*
X34004Y229743D01*
X33974Y229701D01*
X33952Y229632D01*
X33922Y229567D01*
X33916Y229515D01*
X33901Y229465D01*
X33903Y229394D01*
X33895Y229322D01*
X33906Y229272D01*
X33908Y229220D01*
X33932Y229152D01*
X33947Y229082D01*
X33974Y229037D01*
X33992Y228989D01*
X34037Y228932D01*
X34074Y228871D01*
X34113Y228837D01*
X34146Y228796D01*
X34206Y228758D01*
X34260Y228711D01*
X34309Y228692D01*
X34353Y228663D01*
X34422Y228646D01*
X34489Y228619D01*
X34560Y228611D01*
X34591Y228603D01*
X34614Y228605D01*
X34655Y228601D01*
X46441Y228601D01*
X46531Y228615D01*
X46622Y228623D01*
X46651Y228635D01*
X46683Y228640D01*
X46764Y228683D01*
X46848Y228719D01*
X46880Y228745D01*
X46901Y228756D01*
X46923Y228779D01*
X46979Y228824D01*
X61742Y243587D01*
X200942Y243587D01*
X201057Y243606D01*
X201173Y243623D01*
X201178Y243625D01*
X201185Y243626D01*
X201287Y243681D01*
X201392Y243734D01*
X201396Y243739D01*
X201402Y243742D01*
X201482Y243826D01*
X201564Y243910D01*
X201568Y243916D01*
X201571Y243920D01*
X201579Y243937D01*
X201645Y244057D01*
X203841Y249358D01*
X207842Y253359D01*
X213071Y255525D01*
X214818Y255525D01*
X214838Y255528D01*
X214858Y255526D01*
X214959Y255548D01*
X215061Y255564D01*
X215078Y255574D01*
X215098Y255578D01*
X215187Y255631D01*
X215278Y255680D01*
X215292Y255694D01*
X215309Y255704D01*
X215376Y255783D01*
X215448Y255858D01*
X215456Y255876D01*
X215469Y255891D01*
X215508Y255987D01*
X215551Y256081D01*
X215553Y256101D01*
X215561Y256119D01*
X215579Y256286D01*
X215579Y371910D01*
X215575Y371934D01*
X215578Y371958D01*
X215556Y372055D01*
X215540Y372153D01*
X215528Y372174D01*
X215523Y372198D01*
X215471Y372283D01*
X215424Y372371D01*
X215407Y372387D01*
X215394Y372408D01*
X215318Y372472D01*
X215246Y372540D01*
X215224Y372550D01*
X215206Y372566D01*
X215113Y372602D01*
X215023Y372644D01*
X214999Y372646D01*
X214977Y372655D01*
X214877Y372660D01*
X214779Y372671D01*
X214755Y372666D01*
X214731Y372667D01*
X214635Y372640D01*
X214538Y372618D01*
X214518Y372606D01*
X214494Y372600D01*
X214412Y372543D01*
X214327Y372492D01*
X214311Y372474D01*
X214292Y372460D01*
X214232Y372381D01*
X214167Y372305D01*
X214158Y372283D01*
X214144Y372264D01*
X214083Y372108D01*
X213872Y371319D01*
X210570Y365600D01*
X205900Y360930D01*
X200181Y357628D01*
X193802Y355919D01*
X187198Y355919D01*
X180819Y357628D01*
X175100Y360930D01*
X170430Y365600D01*
X167128Y371319D01*
X165419Y377698D01*
X165419Y384302D01*
X167128Y390681D01*
X170430Y396400D01*
X175100Y401070D01*
X180819Y404372D01*
X187198Y406081D01*
X193802Y406081D01*
X200181Y404372D01*
X205900Y401070D01*
X210570Y396400D01*
X213872Y390681D01*
X214083Y389892D01*
X214093Y389871D01*
X214097Y389847D01*
X214143Y389759D01*
X214184Y389668D01*
X214200Y389651D01*
X214212Y389629D01*
X214284Y389561D01*
X214351Y389488D01*
X214372Y389477D01*
X214390Y389460D01*
X214480Y389418D01*
X214567Y389371D01*
X214591Y389367D01*
X214613Y389356D01*
X214712Y389345D01*
X214810Y389328D01*
X214834Y389332D01*
X214858Y389329D01*
X214954Y389350D01*
X215053Y389365D01*
X215074Y389376D01*
X215098Y389382D01*
X215183Y389433D01*
X215272Y389478D01*
X215288Y389495D01*
X215309Y389508D01*
X215374Y389583D01*
X215443Y389655D01*
X215453Y389676D01*
X215469Y389695D01*
X215506Y389787D01*
X215549Y389877D01*
X215552Y389900D01*
X215561Y389923D01*
X215579Y390090D01*
X215579Y416814D01*
X215576Y416834D01*
X215578Y416853D01*
X215556Y416955D01*
X215540Y417057D01*
X215530Y417074D01*
X215526Y417094D01*
X215473Y417183D01*
X215424Y417274D01*
X215410Y417288D01*
X215400Y417305D01*
X215321Y417372D01*
X215246Y417444D01*
X215228Y417452D01*
X215213Y417465D01*
X215117Y417504D01*
X215023Y417547D01*
X215003Y417549D01*
X214985Y417557D01*
X214818Y417575D01*
X213071Y417575D01*
X207842Y419741D01*
X203841Y423742D01*
X201675Y428971D01*
X201675Y434629D01*
X203841Y439858D01*
X207842Y443859D01*
X213071Y446025D01*
X214818Y446025D01*
X214838Y446028D01*
X214858Y446026D01*
X214959Y446048D01*
X215061Y446064D01*
X215078Y446074D01*
X215098Y446078D01*
X215187Y446131D01*
X215278Y446180D01*
X215292Y446194D01*
X215309Y446204D01*
X215376Y446283D01*
X215448Y446358D01*
X215456Y446376D01*
X215469Y446391D01*
X215508Y446487D01*
X215551Y446581D01*
X215553Y446601D01*
X215561Y446619D01*
X215579Y446786D01*
X215579Y562411D01*
X215575Y562434D01*
X215578Y562458D01*
X215556Y562555D01*
X215540Y562653D01*
X215528Y562675D01*
X215523Y562698D01*
X215471Y562783D01*
X215424Y562871D01*
X215407Y562887D01*
X215394Y562908D01*
X215318Y562972D01*
X215246Y563040D01*
X215224Y563050D01*
X215206Y563066D01*
X215113Y563102D01*
X215023Y563144D01*
X214999Y563146D01*
X214977Y563155D01*
X214877Y563160D01*
X214779Y563171D01*
X214755Y563166D01*
X214731Y563167D01*
X214635Y563140D01*
X214538Y563118D01*
X214518Y563106D01*
X214494Y563100D01*
X214412Y563043D01*
X214327Y562992D01*
X214311Y562974D01*
X214292Y562960D01*
X214232Y562881D01*
X214167Y562805D01*
X214158Y562783D01*
X214144Y562764D01*
X214083Y562608D01*
X213872Y561819D01*
X210570Y556100D01*
X205900Y551430D01*
X200181Y548128D01*
X193802Y546419D01*
X187198Y546419D01*
X180819Y548128D01*
X175100Y551430D01*
X170430Y556100D01*
X167128Y561819D01*
X165419Y568198D01*
X165419Y574802D01*
X167128Y581181D01*
X170430Y586900D01*
X175100Y591570D01*
X180819Y594872D01*
X187198Y596581D01*
X193802Y596581D01*
X200181Y594872D01*
X205900Y591570D01*
X210570Y586900D01*
X213872Y581181D01*
X214083Y580392D01*
X214093Y580371D01*
X214097Y580347D01*
X214143Y580259D01*
X214184Y580168D01*
X214200Y580151D01*
X214212Y580129D01*
X214284Y580061D01*
X214351Y579988D01*
X214373Y579977D01*
X214390Y579960D01*
X214480Y579918D01*
X214567Y579871D01*
X214591Y579867D01*
X214613Y579856D01*
X214712Y579845D01*
X214810Y579828D01*
X214834Y579832D01*
X214858Y579829D01*
X214954Y579850D01*
X215053Y579865D01*
X215074Y579876D01*
X215098Y579882D01*
X215183Y579932D01*
X215272Y579978D01*
X215288Y579995D01*
X215309Y580008D01*
X215374Y580083D01*
X215443Y580155D01*
X215453Y580176D01*
X215469Y580195D01*
X215506Y580287D01*
X215549Y580377D01*
X215552Y580400D01*
X215561Y580423D01*
X215579Y580589D01*
X215579Y607314D01*
X215576Y607334D01*
X215578Y607353D01*
X215556Y607455D01*
X215540Y607557D01*
X215530Y607574D01*
X215526Y607594D01*
X215473Y607683D01*
X215424Y607774D01*
X215410Y607788D01*
X215400Y607805D01*
X215321Y607872D01*
X215246Y607944D01*
X215228Y607952D01*
X215213Y607965D01*
X215117Y608004D01*
X215023Y608047D01*
X215003Y608049D01*
X214985Y608057D01*
X214818Y608075D01*
X213071Y608075D01*
X207842Y610241D01*
X203841Y614242D01*
X201675Y619471D01*
X201675Y625129D01*
X203841Y630358D01*
X207842Y634359D01*
X213071Y636525D01*
X214818Y636525D01*
X214838Y636528D01*
X214858Y636526D01*
X214959Y636548D01*
X215061Y636564D01*
X215078Y636574D01*
X215098Y636578D01*
X215187Y636631D01*
X215278Y636680D01*
X215292Y636694D01*
X215309Y636704D01*
X215376Y636783D01*
X215448Y636858D01*
X215456Y636876D01*
X215469Y636891D01*
X215508Y636987D01*
X215551Y637081D01*
X215553Y637101D01*
X215561Y637119D01*
X215579Y637286D01*
X215579Y752911D01*
X215575Y752934D01*
X215578Y752958D01*
X215556Y753055D01*
X215540Y753153D01*
X215528Y753175D01*
X215523Y753198D01*
X215471Y753283D01*
X215424Y753371D01*
X215407Y753387D01*
X215394Y753408D01*
X215318Y753472D01*
X215246Y753540D01*
X215224Y753550D01*
X215206Y753566D01*
X215113Y753602D01*
X215023Y753644D01*
X214999Y753646D01*
X214977Y753655D01*
X214877Y753660D01*
X214779Y753671D01*
X214755Y753666D01*
X214731Y753667D01*
X214635Y753640D01*
X214538Y753618D01*
X214518Y753606D01*
X214494Y753600D01*
X214412Y753543D01*
X214327Y753492D01*
X214311Y753474D01*
X214292Y753460D01*
X214232Y753381D01*
X214167Y753305D01*
X214158Y753283D01*
X214144Y753264D01*
X214083Y753108D01*
X213872Y752319D01*
X210570Y746600D01*
X205900Y741930D01*
X200181Y738628D01*
X193802Y736919D01*
X187198Y736919D01*
X180819Y738628D01*
X175100Y741930D01*
X170430Y746600D01*
X167128Y752319D01*
X165419Y758698D01*
X165419Y765302D01*
X167128Y771681D01*
X170430Y777400D01*
X175100Y782070D01*
X180819Y785372D01*
X187198Y787081D01*
X193802Y787081D01*
X200181Y785372D01*
X205900Y782070D01*
X210570Y777400D01*
X213872Y771681D01*
X214083Y770892D01*
X214093Y770871D01*
X214097Y770847D01*
X214143Y770759D01*
X214184Y770668D01*
X214200Y770651D01*
X214212Y770629D01*
X214284Y770561D01*
X214351Y770488D01*
X214373Y770477D01*
X214390Y770460D01*
X214480Y770418D01*
X214567Y770371D01*
X214591Y770367D01*
X214613Y770356D01*
X214712Y770345D01*
X214810Y770328D01*
X214834Y770332D01*
X214858Y770329D01*
X214954Y770350D01*
X215053Y770365D01*
X215074Y770376D01*
X215098Y770382D01*
X215183Y770432D01*
X215272Y770478D01*
X215288Y770495D01*
X215309Y770508D01*
X215374Y770583D01*
X215443Y770655D01*
X215453Y770676D01*
X215469Y770695D01*
X215506Y770787D01*
X215549Y770877D01*
X215552Y770900D01*
X215561Y770923D01*
X215579Y771089D01*
X215579Y797814D01*
X215576Y797834D01*
X215578Y797853D01*
X215556Y797955D01*
X215540Y798057D01*
X215530Y798074D01*
X215526Y798094D01*
X215473Y798183D01*
X215424Y798274D01*
X215410Y798288D01*
X215400Y798305D01*
X215321Y798372D01*
X215246Y798444D01*
X215228Y798452D01*
X215213Y798465D01*
X215117Y798504D01*
X215023Y798547D01*
X215003Y798549D01*
X214985Y798557D01*
X214818Y798575D01*
X213071Y798575D01*
X207842Y800741D01*
X203841Y804742D01*
X201675Y809971D01*
X201675Y815629D01*
X203841Y820858D01*
X207842Y824859D01*
X213071Y827025D01*
X218729Y827025D01*
X223958Y824859D01*
X227959Y820858D01*
X230125Y815629D01*
X230125Y809971D01*
X227959Y804742D01*
X223958Y800741D01*
X220623Y799359D01*
X220523Y799298D01*
X220423Y799238D01*
X220419Y799233D01*
X220414Y799230D01*
X220339Y799140D01*
X220263Y799051D01*
X220261Y799045D01*
X220257Y799040D01*
X220215Y798932D01*
X220171Y798823D01*
X220170Y798815D01*
X220169Y798811D01*
X220168Y798792D01*
X220153Y798656D01*
X220153Y636444D01*
X220172Y636329D01*
X220189Y636213D01*
X220192Y636207D01*
X220193Y636201D01*
X220247Y636098D01*
X220300Y635994D01*
X220305Y635989D01*
X220308Y635984D01*
X220392Y635904D01*
X220476Y635821D01*
X220482Y635818D01*
X220486Y635814D01*
X220503Y635807D01*
X220623Y635741D01*
X223958Y634359D01*
X227959Y630358D01*
X230125Y625129D01*
X230125Y619471D01*
X227959Y614242D01*
X223958Y610241D01*
X220623Y608859D01*
X220523Y608798D01*
X220423Y608738D01*
X220419Y608733D01*
X220414Y608730D01*
X220339Y608640D01*
X220263Y608551D01*
X220261Y608545D01*
X220257Y608540D01*
X220215Y608432D01*
X220171Y608323D01*
X220170Y608315D01*
X220169Y608311D01*
X220168Y608292D01*
X220153Y608156D01*
X220153Y445944D01*
X220172Y445829D01*
X220189Y445713D01*
X220192Y445707D01*
X220193Y445701D01*
X220247Y445598D01*
X220300Y445494D01*
X220305Y445489D01*
X220308Y445484D01*
X220392Y445404D01*
X220476Y445321D01*
X220482Y445318D01*
X220486Y445314D01*
X220503Y445307D01*
X220623Y445241D01*
X223958Y443859D01*
X227959Y439858D01*
X230125Y434629D01*
X230125Y428971D01*
X227959Y423742D01*
X223958Y419741D01*
X220623Y418359D01*
X220523Y418298D01*
X220423Y418238D01*
X220419Y418233D01*
X220414Y418230D01*
X220339Y418140D01*
X220263Y418051D01*
X220261Y418045D01*
X220257Y418040D01*
X220215Y417932D01*
X220171Y417823D01*
X220170Y417815D01*
X220169Y417811D01*
X220168Y417792D01*
X220153Y417656D01*
X220153Y255444D01*
X220172Y255329D01*
X220189Y255213D01*
X220192Y255207D01*
X220193Y255201D01*
X220247Y255098D01*
X220300Y254994D01*
X220305Y254989D01*
X220308Y254984D01*
X220392Y254904D01*
X220476Y254821D01*
X220482Y254818D01*
X220486Y254814D01*
X220503Y254807D01*
X220623Y254741D01*
X223958Y253359D01*
X227959Y249358D01*
X230125Y244129D01*
X230125Y238471D01*
X227959Y233242D01*
X224617Y229900D01*
X224575Y229842D01*
X224526Y229790D01*
X224504Y229743D01*
X224474Y229701D01*
X224452Y229632D01*
X224422Y229567D01*
X224416Y229515D01*
X224401Y229465D01*
X224403Y229394D01*
X224395Y229322D01*
X224406Y229272D01*
X224408Y229220D01*
X224432Y229152D01*
X224447Y229082D01*
X224474Y229037D01*
X224492Y228989D01*
X224537Y228932D01*
X224574Y228871D01*
X224613Y228837D01*
X224646Y228796D01*
X224706Y228758D01*
X224760Y228711D01*
X224809Y228692D01*
X224853Y228663D01*
X224922Y228646D01*
X224989Y228619D01*
X225060Y228611D01*
X225091Y228603D01*
X225114Y228605D01*
X225155Y228601D01*
X236941Y228601D01*
X237031Y228615D01*
X237122Y228623D01*
X237151Y228635D01*
X237183Y228640D01*
X237264Y228683D01*
X237348Y228719D01*
X237380Y228745D01*
X237401Y228756D01*
X237423Y228779D01*
X237479Y228824D01*
X252242Y243587D01*
X391442Y243587D01*
X391557Y243606D01*
X391673Y243623D01*
X391678Y243625D01*
X391685Y243626D01*
X391787Y243681D01*
X391892Y243734D01*
X391896Y243739D01*
X391902Y243742D01*
X391982Y243826D01*
X392064Y243910D01*
X392068Y243916D01*
X392071Y243920D01*
X392079Y243937D01*
X392145Y244057D01*
X394341Y249358D01*
X398342Y253359D01*
X403571Y255525D01*
X405318Y255525D01*
X405338Y255528D01*
X405358Y255526D01*
X405459Y255548D01*
X405561Y255564D01*
X405578Y255574D01*
X405598Y255578D01*
X405687Y255631D01*
X405778Y255680D01*
X405792Y255694D01*
X405809Y255704D01*
X405876Y255783D01*
X405948Y255858D01*
X405956Y255876D01*
X405969Y255891D01*
X406008Y255987D01*
X406051Y256081D01*
X406053Y256101D01*
X406061Y256119D01*
X406079Y256286D01*
X406079Y371910D01*
X406075Y371934D01*
X406078Y371958D01*
X406056Y372055D01*
X406040Y372153D01*
X406028Y372174D01*
X406023Y372198D01*
X405971Y372283D01*
X405924Y372371D01*
X405907Y372387D01*
X405894Y372408D01*
X405818Y372472D01*
X405746Y372540D01*
X405724Y372550D01*
X405706Y372566D01*
X405613Y372602D01*
X405523Y372644D01*
X405499Y372646D01*
X405477Y372655D01*
X405377Y372660D01*
X405279Y372671D01*
X405255Y372666D01*
X405231Y372667D01*
X405135Y372640D01*
X405038Y372618D01*
X405018Y372606D01*
X404994Y372600D01*
X404912Y372543D01*
X404827Y372492D01*
X404811Y372474D01*
X404792Y372460D01*
X404732Y372381D01*
X404667Y372305D01*
X404658Y372283D01*
X404644Y372264D01*
X404583Y372108D01*
X404372Y371319D01*
X401070Y365600D01*
X396400Y360930D01*
X390681Y357628D01*
X384302Y355919D01*
X377698Y355919D01*
X371319Y357628D01*
X365600Y360930D01*
X360930Y365600D01*
X357628Y371319D01*
X355919Y377698D01*
X355919Y384302D01*
X357628Y390681D01*
X360930Y396400D01*
X365600Y401070D01*
X371319Y404372D01*
X377698Y406081D01*
X384302Y406081D01*
X390681Y404372D01*
X396400Y401070D01*
X401070Y396400D01*
X404372Y390681D01*
X404583Y389892D01*
X404593Y389871D01*
X404597Y389847D01*
X404643Y389759D01*
X404684Y389668D01*
X404700Y389651D01*
X404712Y389629D01*
X404784Y389561D01*
X404851Y389488D01*
X404872Y389477D01*
X404890Y389460D01*
X404980Y389418D01*
X405067Y389371D01*
X405091Y389367D01*
X405113Y389356D01*
X405212Y389345D01*
X405310Y389328D01*
X405334Y389332D01*
X405358Y389329D01*
X405454Y389350D01*
X405553Y389365D01*
X405574Y389376D01*
X405598Y389382D01*
X405683Y389433D01*
X405772Y389478D01*
X405788Y389495D01*
X405809Y389508D01*
X405874Y389583D01*
X405943Y389655D01*
X405953Y389676D01*
X405969Y389695D01*
X406006Y389787D01*
X406049Y389877D01*
X406052Y389900D01*
X406061Y389923D01*
X406079Y390090D01*
X406079Y416814D01*
X406076Y416834D01*
X406078Y416853D01*
X406056Y416955D01*
X406040Y417057D01*
X406030Y417074D01*
X406026Y417094D01*
X405973Y417183D01*
X405924Y417274D01*
X405910Y417288D01*
X405900Y417305D01*
X405821Y417372D01*
X405746Y417444D01*
X405728Y417452D01*
X405713Y417465D01*
X405617Y417504D01*
X405523Y417547D01*
X405503Y417549D01*
X405485Y417557D01*
X405318Y417575D01*
X403571Y417575D01*
X398342Y419741D01*
X394341Y423742D01*
X392175Y428971D01*
X392175Y434629D01*
X394341Y439858D01*
X398342Y443859D01*
X403571Y446025D01*
X405318Y446025D01*
X405338Y446028D01*
X405358Y446026D01*
X405459Y446048D01*
X405561Y446064D01*
X405578Y446074D01*
X405598Y446078D01*
X405687Y446131D01*
X405778Y446180D01*
X405792Y446194D01*
X405809Y446204D01*
X405876Y446283D01*
X405948Y446358D01*
X405956Y446376D01*
X405969Y446391D01*
X406008Y446487D01*
X406051Y446581D01*
X406053Y446601D01*
X406061Y446619D01*
X406079Y446786D01*
X406079Y562411D01*
X406075Y562434D01*
X406078Y562458D01*
X406056Y562555D01*
X406040Y562653D01*
X406028Y562675D01*
X406023Y562698D01*
X405971Y562783D01*
X405924Y562871D01*
X405907Y562887D01*
X405894Y562908D01*
X405818Y562972D01*
X405746Y563040D01*
X405724Y563050D01*
X405706Y563066D01*
X405613Y563102D01*
X405523Y563144D01*
X405499Y563146D01*
X405477Y563155D01*
X405377Y563160D01*
X405279Y563171D01*
X405255Y563166D01*
X405231Y563167D01*
X405136Y563140D01*
X405038Y563119D01*
X405017Y563106D01*
X404994Y563100D01*
X404913Y563043D01*
X404827Y562992D01*
X404811Y562974D01*
X404792Y562960D01*
X404732Y562881D01*
X404667Y562805D01*
X404658Y562783D01*
X404644Y562764D01*
X404583Y562608D01*
X404372Y561819D01*
X401070Y556100D01*
X396400Y551430D01*
X390681Y548128D01*
X384302Y546419D01*
X377698Y546419D01*
X371319Y548128D01*
X365600Y551430D01*
X360930Y556100D01*
X357628Y561819D01*
X355919Y568198D01*
X355919Y574802D01*
X357628Y581181D01*
X360930Y586900D01*
X365600Y591570D01*
X371319Y594872D01*
X377698Y596581D01*
X384302Y596581D01*
X390681Y594872D01*
X396400Y591570D01*
X401070Y586900D01*
X404372Y581181D01*
X404583Y580392D01*
X404593Y580370D01*
X404597Y580347D01*
X404643Y580259D01*
X404684Y580168D01*
X404700Y580151D01*
X404712Y580129D01*
X404784Y580061D01*
X404851Y579988D01*
X404873Y579977D01*
X404890Y579960D01*
X404980Y579918D01*
X405067Y579871D01*
X405091Y579866D01*
X405113Y579856D01*
X405212Y579845D01*
X405310Y579828D01*
X405334Y579832D01*
X405358Y579829D01*
X405454Y579850D01*
X405553Y579865D01*
X405574Y579876D01*
X405598Y579881D01*
X405683Y579932D01*
X405772Y579978D01*
X405788Y579995D01*
X405809Y580008D01*
X405874Y580083D01*
X405943Y580155D01*
X405953Y580176D01*
X405969Y580195D01*
X406006Y580287D01*
X406049Y580376D01*
X406052Y580400D01*
X406061Y580423D01*
X406079Y580589D01*
X406079Y607314D01*
X406076Y607334D01*
X406078Y607353D01*
X406056Y607455D01*
X406040Y607557D01*
X406030Y607574D01*
X406026Y607594D01*
X405973Y607683D01*
X405924Y607774D01*
X405910Y607788D01*
X405900Y607805D01*
X405821Y607872D01*
X405746Y607944D01*
X405728Y607952D01*
X405713Y607965D01*
X405617Y608004D01*
X405523Y608047D01*
X405503Y608049D01*
X405485Y608057D01*
X405318Y608075D01*
X403571Y608075D01*
X398342Y610241D01*
X394341Y614242D01*
X392175Y619471D01*
X392175Y625129D01*
X394341Y630358D01*
X398342Y634359D01*
X403571Y636525D01*
X409229Y636525D01*
X414458Y634359D01*
X418459Y630358D01*
X420625Y625129D01*
X420625Y619471D01*
X418459Y614242D01*
X414458Y610241D01*
X411123Y608859D01*
X411023Y608798D01*
X410923Y608738D01*
X410919Y608733D01*
X410914Y608730D01*
X410839Y608640D01*
X410763Y608551D01*
X410761Y608545D01*
X410757Y608540D01*
X410715Y608432D01*
X410671Y608323D01*
X410670Y608315D01*
X410669Y608311D01*
X410668Y608292D01*
X410653Y608156D01*
X410653Y445944D01*
X410672Y445829D01*
X410689Y445713D01*
X410692Y445707D01*
X410693Y445701D01*
X410747Y445598D01*
X410800Y445494D01*
X410805Y445489D01*
X410808Y445484D01*
X410892Y445404D01*
X410976Y445321D01*
X410982Y445318D01*
X410986Y445314D01*
X411003Y445307D01*
X411123Y445241D01*
X414458Y443859D01*
X418459Y439858D01*
X420625Y434629D01*
X420625Y428971D01*
X418459Y423742D01*
X414458Y419741D01*
X411123Y418359D01*
X411023Y418298D01*
X410923Y418238D01*
X410919Y418233D01*
X410914Y418230D01*
X410839Y418140D01*
X410763Y418051D01*
X410761Y418045D01*
X410757Y418040D01*
X410715Y417932D01*
X410671Y417823D01*
X410670Y417815D01*
X410669Y417811D01*
X410668Y417792D01*
X410653Y417656D01*
X410653Y255444D01*
X410672Y255329D01*
X410689Y255213D01*
X410692Y255207D01*
X410693Y255201D01*
X410747Y255098D01*
X410800Y254994D01*
X410805Y254989D01*
X410808Y254984D01*
X410892Y254904D01*
X410976Y254821D01*
X410982Y254818D01*
X410986Y254814D01*
X411003Y254807D01*
X411123Y254741D01*
X414458Y253359D01*
X418459Y249358D01*
X420625Y244129D01*
X420625Y238471D01*
X418459Y233242D01*
X414458Y229241D01*
X409229Y227075D01*
X403571Y227075D01*
X398342Y229241D01*
X394341Y233242D01*
X392145Y238543D01*
X392084Y238643D01*
X392024Y238743D01*
X392019Y238747D01*
X392015Y238752D01*
X391926Y238827D01*
X391837Y238903D01*
X391831Y238905D01*
X391826Y238909D01*
X391718Y238951D01*
X391609Y238995D01*
X391601Y238996D01*
X391596Y238997D01*
X391578Y238998D01*
X391442Y239013D01*
X254452Y239013D01*
X254362Y238999D01*
X254271Y238991D01*
X254241Y238979D01*
X254209Y238974D01*
X254128Y238931D01*
X254044Y238895D01*
X254012Y238869D01*
X253992Y238858D01*
X253969Y238835D01*
X253913Y238790D01*
X239150Y224027D01*
X170742Y224027D01*
X166393Y228376D01*
X166319Y228429D01*
X166250Y228489D01*
X166220Y228501D01*
X166193Y228520D01*
X166106Y228547D01*
X166022Y228581D01*
X165981Y228585D01*
X165958Y228592D01*
X165926Y228591D01*
X165855Y228599D01*
X161655Y228599D01*
X161585Y228588D01*
X161513Y228586D01*
X161464Y228568D01*
X161413Y228560D01*
X161349Y228526D01*
X161282Y228501D01*
X161241Y228469D01*
X161195Y228444D01*
X161146Y228393D01*
X161090Y228348D01*
X161062Y228304D01*
X161026Y228266D01*
X160996Y228201D01*
X160957Y228141D01*
X160944Y228090D01*
X160922Y228043D01*
X160914Y227972D01*
X160897Y227902D01*
X160901Y227850D01*
X160895Y227799D01*
X160910Y227728D01*
X160916Y227657D01*
X160936Y227609D01*
X160947Y227558D01*
X160984Y227497D01*
X161012Y227431D01*
X161057Y227375D01*
X161074Y227347D01*
X161091Y227332D01*
X161117Y227300D01*
X164459Y223958D01*
X166625Y218729D01*
X166625Y213071D01*
X164459Y207842D01*
X160458Y203841D01*
X158323Y202957D01*
X158223Y202895D01*
X158123Y202835D01*
X158119Y202830D01*
X158114Y202827D01*
X158039Y202737D01*
X157963Y202648D01*
X157961Y202642D01*
X157957Y202637D01*
X157915Y202529D01*
X157871Y202420D01*
X157870Y202412D01*
X157869Y202408D01*
X157868Y202390D01*
X157853Y202253D01*
X157853Y107569D01*
X154048Y103764D01*
X153995Y103690D01*
X153935Y103620D01*
X153923Y103590D01*
X153904Y103564D01*
X153877Y103477D01*
X153843Y103392D01*
X153839Y103351D01*
X153832Y103329D01*
X153833Y103297D01*
X153825Y103226D01*
X153825Y84618D01*
X152932Y83725D01*
X131668Y83725D01*
X130775Y84618D01*
X130775Y105882D01*
X131668Y106775D01*
X150276Y106775D01*
X150366Y106789D01*
X150457Y106797D01*
X150486Y106809D01*
X150518Y106814D01*
X150599Y106857D01*
X150683Y106893D01*
X150715Y106919D01*
X150736Y106930D01*
X150758Y106953D01*
X150814Y106998D01*
X153056Y109240D01*
X153110Y109314D01*
X153169Y109384D01*
X153181Y109414D01*
X153200Y109440D01*
X153227Y109527D01*
X153261Y109612D01*
X153265Y109653D01*
X153272Y109675D01*
X153271Y109707D01*
X153279Y109779D01*
X153279Y183968D01*
X153264Y184064D01*
X153254Y184161D01*
X153244Y184185D01*
X153240Y184211D01*
X153194Y184297D01*
X153154Y184386D01*
X153137Y184405D01*
X153124Y184428D01*
X153054Y184495D01*
X152988Y184567D01*
X152965Y184580D01*
X152946Y184598D01*
X152858Y184639D01*
X152773Y184686D01*
X152747Y184690D01*
X152723Y184701D01*
X152626Y184712D01*
X152530Y184729D01*
X152505Y184726D01*
X152479Y184728D01*
X152384Y184708D01*
X152287Y184694D01*
X152264Y184682D01*
X152238Y184676D01*
X152155Y184626D01*
X152068Y184582D01*
X152050Y184563D01*
X152027Y184550D01*
X151964Y184476D01*
X151896Y184406D01*
X151880Y184378D01*
X151867Y184363D01*
X151855Y184332D01*
X151815Y184259D01*
X151213Y182807D01*
X147393Y178987D01*
X142401Y176919D01*
X136999Y176919D01*
X132007Y178987D01*
X128187Y182807D01*
X126119Y187799D01*
X126119Y193201D01*
X128187Y198193D01*
X132007Y202013D01*
X136999Y204081D01*
X142265Y204081D01*
X142335Y204092D01*
X142407Y204094D01*
X142456Y204112D01*
X142507Y204120D01*
X142571Y204154D01*
X142638Y204179D01*
X142679Y204211D01*
X142725Y204236D01*
X142774Y204288D01*
X142830Y204332D01*
X142858Y204376D01*
X142894Y204414D01*
X142924Y204479D01*
X142963Y204539D01*
X142976Y204590D01*
X142998Y204637D01*
X143006Y204708D01*
X143023Y204778D01*
X143019Y204830D01*
X143025Y204881D01*
X143010Y204952D01*
X143004Y205023D01*
X142984Y205071D01*
X142973Y205122D01*
X142936Y205183D01*
X142908Y205249D01*
X142863Y205305D01*
X142846Y205333D01*
X142829Y205348D01*
X142803Y205380D01*
X140341Y207842D01*
X138175Y213071D01*
X138175Y218729D01*
X140341Y223958D01*
X143683Y227300D01*
X143725Y227358D01*
X143774Y227410D01*
X143796Y227457D01*
X143826Y227499D01*
X143848Y227568D01*
X143878Y227633D01*
X143884Y227685D01*
X143899Y227735D01*
X143897Y227806D01*
X143905Y227878D01*
X143894Y227928D01*
X143892Y227980D01*
X143868Y228048D01*
X143853Y228118D01*
X143826Y228163D01*
X143808Y228211D01*
X143763Y228268D01*
X143726Y228329D01*
X143687Y228363D01*
X143654Y228404D01*
X143594Y228442D01*
X143540Y228489D01*
X143491Y228508D01*
X143447Y228537D01*
X143378Y228554D01*
X143311Y228581D01*
X143240Y228589D01*
X143209Y228597D01*
X143186Y228595D01*
X143145Y228599D01*
X63718Y228599D01*
X63628Y228585D01*
X63537Y228577D01*
X63507Y228565D01*
X63475Y228560D01*
X63394Y228517D01*
X63310Y228481D01*
X63278Y228455D01*
X63258Y228444D01*
X63235Y228421D01*
X63180Y228376D01*
X55782Y220979D01*
X-14207Y220979D01*
X-136233Y343005D01*
X-136495Y343267D01*
X-136553Y343309D01*
X-136605Y343358D01*
X-136652Y343380D01*
X-136694Y343411D01*
X-136763Y343432D01*
X-136828Y343462D01*
X-136880Y343468D01*
X-136930Y343483D01*
X-137001Y343481D01*
X-137072Y343489D01*
X-137123Y343478D01*
X-137175Y343477D01*
X-137243Y343452D01*
X-137313Y343437D01*
X-137358Y343410D01*
X-137406Y343392D01*
X-137462Y343347D01*
X-137524Y343311D01*
X-137558Y343271D01*
X-137598Y343238D01*
X-137637Y343178D01*
X-137684Y343124D01*
X-137703Y343075D01*
X-137731Y343032D01*
X-137749Y342962D01*
X-137776Y342895D01*
X-137784Y342824D01*
X-137792Y342793D01*
X-137790Y342770D01*
X-137794Y342729D01*
X-137794Y53467D01*
X-137791Y53447D01*
X-137793Y53428D01*
X-137771Y53326D01*
X-137755Y53224D01*
X-137745Y53207D01*
X-137741Y53187D01*
X-137688Y53098D01*
X-137639Y53007D01*
X-137625Y52993D01*
X-137615Y52976D01*
X-137536Y52909D01*
X-137461Y52837D01*
X-137443Y52829D01*
X-137428Y52816D01*
X-137332Y52777D01*
X-137238Y52734D01*
X-137218Y52732D01*
X-137200Y52724D01*
X-137033Y52706D01*
X522596Y52706D01*
X522615Y52709D01*
G37*
%LPC*%
G36*
X322168Y274225D02*
X322168Y274225D01*
X321275Y275118D01*
X321275Y296382D01*
X322168Y297275D01*
X340775Y297275D01*
X340866Y297289D01*
X340956Y297297D01*
X340986Y297309D01*
X341018Y297314D01*
X341099Y297357D01*
X341183Y297393D01*
X341215Y297419D01*
X341236Y297430D01*
X341258Y297453D01*
X341314Y297498D01*
X343556Y299740D01*
X343609Y299814D01*
X343669Y299884D01*
X343681Y299914D01*
X343700Y299940D01*
X343727Y300027D01*
X343761Y300112D01*
X343765Y300153D01*
X343772Y300175D01*
X343771Y300207D01*
X343779Y300279D01*
X343779Y374468D01*
X343764Y374564D01*
X343754Y374661D01*
X343744Y374685D01*
X343740Y374711D01*
X343694Y374797D01*
X343654Y374886D01*
X343637Y374905D01*
X343624Y374928D01*
X343554Y374995D01*
X343488Y375067D01*
X343465Y375080D01*
X343446Y375098D01*
X343358Y375139D01*
X343273Y375186D01*
X343247Y375190D01*
X343223Y375201D01*
X343126Y375212D01*
X343030Y375229D01*
X343005Y375225D01*
X342979Y375228D01*
X342883Y375208D01*
X342787Y375194D01*
X342764Y375182D01*
X342738Y375176D01*
X342655Y375126D01*
X342568Y375082D01*
X342550Y375063D01*
X342527Y375050D01*
X342464Y374976D01*
X342396Y374906D01*
X342380Y374878D01*
X342367Y374863D01*
X342355Y374832D01*
X342315Y374759D01*
X341713Y373307D01*
X337893Y369487D01*
X332901Y367419D01*
X327499Y367419D01*
X322507Y369487D01*
X318687Y373307D01*
X316619Y378299D01*
X316619Y383701D01*
X318687Y388693D01*
X322507Y392513D01*
X327499Y394581D01*
X332765Y394581D01*
X332835Y394592D01*
X332907Y394594D01*
X332956Y394612D01*
X333007Y394620D01*
X333071Y394654D01*
X333138Y394679D01*
X333179Y394711D01*
X333225Y394736D01*
X333274Y394788D01*
X333330Y394832D01*
X333358Y394876D01*
X333394Y394914D01*
X333424Y394979D01*
X333463Y395039D01*
X333476Y395090D01*
X333498Y395137D01*
X333506Y395208D01*
X333523Y395278D01*
X333519Y395330D01*
X333525Y395381D01*
X333510Y395452D01*
X333504Y395523D01*
X333484Y395571D01*
X333473Y395622D01*
X333436Y395683D01*
X333408Y395749D01*
X333363Y395805D01*
X333346Y395833D01*
X333329Y395848D01*
X333303Y395880D01*
X330841Y398342D01*
X328675Y403571D01*
X328675Y409229D01*
X330841Y414458D01*
X334842Y418459D01*
X340071Y420625D01*
X345729Y420625D01*
X350958Y418459D01*
X354959Y414458D01*
X357125Y409229D01*
X357125Y403571D01*
X354959Y398342D01*
X350958Y394341D01*
X348823Y393457D01*
X348723Y393395D01*
X348623Y393335D01*
X348619Y393330D01*
X348614Y393327D01*
X348539Y393237D01*
X348463Y393148D01*
X348461Y393142D01*
X348457Y393137D01*
X348415Y393029D01*
X348371Y392920D01*
X348370Y392912D01*
X348369Y392908D01*
X348368Y392890D01*
X348353Y392753D01*
X348353Y298069D01*
X344548Y294264D01*
X344495Y294190D01*
X344435Y294120D01*
X344423Y294090D01*
X344404Y294064D01*
X344377Y293977D01*
X344343Y293892D01*
X344339Y293851D01*
X344332Y293829D01*
X344333Y293797D01*
X344325Y293725D01*
X344325Y275118D01*
X343432Y274225D01*
X322168Y274225D01*
G37*
%LPD*%
%LPC*%
G36*
X131668Y274225D02*
X131668Y274225D01*
X130775Y275118D01*
X130775Y296382D01*
X131668Y297275D01*
X150275Y297275D01*
X150366Y297289D01*
X150456Y297297D01*
X150486Y297309D01*
X150518Y297314D01*
X150599Y297357D01*
X150683Y297393D01*
X150715Y297419D01*
X150736Y297430D01*
X150758Y297453D01*
X150814Y297498D01*
X153056Y299740D01*
X153109Y299814D01*
X153169Y299884D01*
X153181Y299914D01*
X153200Y299940D01*
X153227Y300027D01*
X153261Y300112D01*
X153265Y300153D01*
X153272Y300175D01*
X153271Y300207D01*
X153279Y300279D01*
X153279Y374468D01*
X153264Y374564D01*
X153254Y374661D01*
X153244Y374685D01*
X153240Y374711D01*
X153194Y374797D01*
X153154Y374886D01*
X153137Y374905D01*
X153124Y374928D01*
X153054Y374995D01*
X152988Y375067D01*
X152965Y375080D01*
X152946Y375098D01*
X152858Y375139D01*
X152773Y375186D01*
X152747Y375190D01*
X152723Y375201D01*
X152626Y375212D01*
X152530Y375229D01*
X152505Y375225D01*
X152479Y375228D01*
X152383Y375208D01*
X152287Y375194D01*
X152264Y375182D01*
X152238Y375176D01*
X152155Y375126D01*
X152068Y375082D01*
X152050Y375063D01*
X152027Y375050D01*
X151964Y374976D01*
X151896Y374906D01*
X151880Y374878D01*
X151867Y374863D01*
X151855Y374832D01*
X151815Y374759D01*
X151213Y373307D01*
X147393Y369487D01*
X142401Y367419D01*
X136999Y367419D01*
X132007Y369487D01*
X128187Y373307D01*
X126119Y378299D01*
X126119Y383701D01*
X128187Y388693D01*
X132007Y392513D01*
X136999Y394581D01*
X142265Y394581D01*
X142335Y394592D01*
X142407Y394594D01*
X142456Y394612D01*
X142507Y394620D01*
X142571Y394654D01*
X142638Y394679D01*
X142679Y394711D01*
X142725Y394736D01*
X142774Y394788D01*
X142830Y394832D01*
X142858Y394876D01*
X142894Y394914D01*
X142924Y394979D01*
X142963Y395039D01*
X142976Y395090D01*
X142998Y395137D01*
X143006Y395208D01*
X143023Y395278D01*
X143019Y395330D01*
X143025Y395381D01*
X143010Y395452D01*
X143004Y395523D01*
X142984Y395571D01*
X142973Y395622D01*
X142936Y395683D01*
X142908Y395749D01*
X142863Y395805D01*
X142846Y395833D01*
X142829Y395848D01*
X142803Y395880D01*
X140341Y398342D01*
X138175Y403571D01*
X138175Y409229D01*
X140341Y414458D01*
X144342Y418459D01*
X149571Y420625D01*
X155229Y420625D01*
X160458Y418459D01*
X164459Y414458D01*
X166625Y409229D01*
X166625Y403571D01*
X164459Y398342D01*
X160458Y394341D01*
X158323Y393457D01*
X158223Y393395D01*
X158123Y393335D01*
X158119Y393330D01*
X158114Y393327D01*
X158039Y393237D01*
X157963Y393148D01*
X157961Y393142D01*
X157957Y393137D01*
X157915Y393029D01*
X157871Y392920D01*
X157870Y392912D01*
X157869Y392908D01*
X157868Y392890D01*
X157853Y392753D01*
X157853Y298069D01*
X154048Y294264D01*
X153995Y294190D01*
X153935Y294120D01*
X153923Y294090D01*
X153904Y294064D01*
X153877Y293977D01*
X153843Y293892D01*
X153839Y293851D01*
X153832Y293829D01*
X153833Y293797D01*
X153825Y293725D01*
X153825Y275118D01*
X152932Y274225D01*
X131668Y274225D01*
G37*
%LPD*%
%LPC*%
G36*
X322168Y464725D02*
X322168Y464725D01*
X321275Y465618D01*
X321275Y486882D01*
X322168Y487775D01*
X340775Y487775D01*
X340866Y487789D01*
X340956Y487797D01*
X340986Y487809D01*
X341018Y487814D01*
X341099Y487857D01*
X341183Y487893D01*
X341215Y487919D01*
X341236Y487930D01*
X341258Y487953D01*
X341314Y487998D01*
X343556Y490240D01*
X343609Y490314D01*
X343669Y490384D01*
X343681Y490414D01*
X343700Y490440D01*
X343727Y490527D01*
X343761Y490612D01*
X343765Y490653D01*
X343772Y490675D01*
X343771Y490707D01*
X343779Y490779D01*
X343779Y564968D01*
X343764Y565064D01*
X343754Y565161D01*
X343744Y565185D01*
X343740Y565211D01*
X343694Y565297D01*
X343654Y565386D01*
X343637Y565405D01*
X343624Y565428D01*
X343554Y565495D01*
X343488Y565567D01*
X343465Y565580D01*
X343446Y565598D01*
X343358Y565639D01*
X343273Y565686D01*
X343247Y565690D01*
X343223Y565701D01*
X343126Y565712D01*
X343030Y565729D01*
X343005Y565725D01*
X342979Y565728D01*
X342883Y565708D01*
X342787Y565694D01*
X342764Y565682D01*
X342738Y565676D01*
X342655Y565626D01*
X342568Y565582D01*
X342550Y565563D01*
X342527Y565550D01*
X342464Y565476D01*
X342396Y565406D01*
X342380Y565378D01*
X342367Y565363D01*
X342355Y565332D01*
X342315Y565259D01*
X341713Y563807D01*
X337893Y559987D01*
X332901Y557919D01*
X327499Y557919D01*
X322507Y559987D01*
X318687Y563807D01*
X316619Y568799D01*
X316619Y574201D01*
X318687Y579193D01*
X322507Y583013D01*
X327499Y585081D01*
X332765Y585081D01*
X332835Y585092D01*
X332907Y585094D01*
X332956Y585112D01*
X333007Y585120D01*
X333071Y585154D01*
X333138Y585179D01*
X333179Y585211D01*
X333225Y585236D01*
X333274Y585288D01*
X333330Y585332D01*
X333358Y585376D01*
X333394Y585414D01*
X333424Y585479D01*
X333463Y585539D01*
X333476Y585590D01*
X333498Y585637D01*
X333506Y585708D01*
X333523Y585778D01*
X333519Y585830D01*
X333525Y585881D01*
X333510Y585952D01*
X333504Y586023D01*
X333484Y586071D01*
X333473Y586122D01*
X333436Y586183D01*
X333408Y586249D01*
X333363Y586305D01*
X333346Y586333D01*
X333329Y586348D01*
X333303Y586380D01*
X330841Y588842D01*
X328675Y594071D01*
X328675Y599729D01*
X330841Y604958D01*
X334842Y608959D01*
X340071Y611125D01*
X345729Y611125D01*
X350958Y608959D01*
X354959Y604958D01*
X357125Y599729D01*
X357125Y594071D01*
X354959Y588842D01*
X350958Y584841D01*
X348823Y583957D01*
X348723Y583895D01*
X348623Y583835D01*
X348619Y583830D01*
X348614Y583827D01*
X348539Y583737D01*
X348463Y583648D01*
X348461Y583642D01*
X348457Y583637D01*
X348415Y583529D01*
X348371Y583420D01*
X348370Y583412D01*
X348369Y583408D01*
X348368Y583390D01*
X348353Y583253D01*
X348353Y488569D01*
X344548Y484764D01*
X344495Y484690D01*
X344435Y484620D01*
X344423Y484590D01*
X344404Y484564D01*
X344377Y484477D01*
X344343Y484392D01*
X344339Y484351D01*
X344332Y484329D01*
X344333Y484297D01*
X344325Y484225D01*
X344325Y465618D01*
X343432Y464725D01*
X322168Y464725D01*
G37*
%LPD*%
%LPC*%
G36*
X131668Y655225D02*
X131668Y655225D01*
X130775Y656118D01*
X130775Y677382D01*
X131668Y678275D01*
X150275Y678275D01*
X150366Y678289D01*
X150456Y678297D01*
X150486Y678309D01*
X150518Y678314D01*
X150599Y678357D01*
X150683Y678393D01*
X150715Y678419D01*
X150736Y678430D01*
X150758Y678453D01*
X150814Y678498D01*
X153056Y680740D01*
X153109Y680814D01*
X153169Y680884D01*
X153181Y680914D01*
X153200Y680940D01*
X153227Y681027D01*
X153261Y681112D01*
X153265Y681153D01*
X153272Y681175D01*
X153271Y681207D01*
X153279Y681279D01*
X153279Y755468D01*
X153264Y755564D01*
X153254Y755661D01*
X153244Y755685D01*
X153240Y755711D01*
X153194Y755797D01*
X153154Y755886D01*
X153137Y755905D01*
X153124Y755928D01*
X153054Y755995D01*
X152988Y756067D01*
X152965Y756080D01*
X152946Y756098D01*
X152858Y756139D01*
X152773Y756186D01*
X152747Y756190D01*
X152723Y756201D01*
X152626Y756212D01*
X152530Y756229D01*
X152505Y756226D01*
X152479Y756228D01*
X152384Y756208D01*
X152287Y756194D01*
X152264Y756182D01*
X152238Y756176D01*
X152155Y756126D01*
X152068Y756082D01*
X152050Y756063D01*
X152027Y756050D01*
X151964Y755976D01*
X151896Y755906D01*
X151880Y755878D01*
X151867Y755863D01*
X151855Y755832D01*
X151815Y755759D01*
X151213Y754307D01*
X147393Y750487D01*
X142401Y748419D01*
X136999Y748419D01*
X132007Y750487D01*
X128187Y754307D01*
X126119Y759299D01*
X126119Y764701D01*
X128187Y769693D01*
X132007Y773513D01*
X136999Y775581D01*
X142265Y775581D01*
X142335Y775592D01*
X142407Y775594D01*
X142456Y775612D01*
X142507Y775620D01*
X142571Y775654D01*
X142638Y775679D01*
X142679Y775711D01*
X142725Y775736D01*
X142774Y775788D01*
X142830Y775832D01*
X142858Y775876D01*
X142894Y775914D01*
X142924Y775979D01*
X142963Y776039D01*
X142976Y776090D01*
X142998Y776137D01*
X143006Y776208D01*
X143023Y776278D01*
X143019Y776330D01*
X143025Y776381D01*
X143010Y776452D01*
X143004Y776523D01*
X142984Y776571D01*
X142973Y776622D01*
X142936Y776683D01*
X142908Y776749D01*
X142863Y776805D01*
X142846Y776833D01*
X142829Y776848D01*
X142803Y776880D01*
X140341Y779342D01*
X138175Y784571D01*
X138175Y790229D01*
X140341Y795458D01*
X144342Y799459D01*
X149571Y801625D01*
X155229Y801625D01*
X160458Y799459D01*
X164459Y795458D01*
X166625Y790229D01*
X166625Y784571D01*
X164459Y779342D01*
X160458Y775341D01*
X158323Y774457D01*
X158223Y774395D01*
X158123Y774335D01*
X158119Y774330D01*
X158114Y774327D01*
X158039Y774237D01*
X157963Y774148D01*
X157961Y774142D01*
X157957Y774137D01*
X157915Y774029D01*
X157871Y773920D01*
X157870Y773912D01*
X157869Y773908D01*
X157868Y773890D01*
X157853Y773753D01*
X157853Y679069D01*
X154048Y675264D01*
X153995Y675190D01*
X153935Y675120D01*
X153923Y675090D01*
X153904Y675064D01*
X153877Y674977D01*
X153843Y674892D01*
X153839Y674851D01*
X153832Y674829D01*
X153833Y674797D01*
X153825Y674725D01*
X153825Y656118D01*
X152932Y655225D01*
X131668Y655225D01*
G37*
%LPD*%
%LPC*%
G36*
X322168Y83725D02*
X322168Y83725D01*
X321275Y84618D01*
X321275Y105882D01*
X322168Y106775D01*
X340775Y106775D01*
X340866Y106789D01*
X340956Y106797D01*
X340986Y106809D01*
X341018Y106814D01*
X341099Y106857D01*
X341183Y106893D01*
X341215Y106919D01*
X341236Y106930D01*
X341258Y106953D01*
X341314Y106998D01*
X343556Y109240D01*
X343609Y109314D01*
X343669Y109384D01*
X343681Y109414D01*
X343700Y109440D01*
X343727Y109527D01*
X343761Y109612D01*
X343765Y109653D01*
X343772Y109675D01*
X343771Y109707D01*
X343779Y109779D01*
X343779Y183968D01*
X343764Y184064D01*
X343754Y184161D01*
X343744Y184185D01*
X343740Y184211D01*
X343694Y184297D01*
X343654Y184386D01*
X343637Y184405D01*
X343624Y184428D01*
X343554Y184495D01*
X343488Y184567D01*
X343465Y184580D01*
X343446Y184598D01*
X343358Y184639D01*
X343273Y184686D01*
X343247Y184690D01*
X343223Y184701D01*
X343126Y184712D01*
X343030Y184729D01*
X343005Y184726D01*
X342979Y184728D01*
X342884Y184708D01*
X342787Y184694D01*
X342764Y184682D01*
X342738Y184676D01*
X342655Y184626D01*
X342568Y184582D01*
X342550Y184563D01*
X342527Y184550D01*
X342464Y184476D01*
X342396Y184406D01*
X342380Y184378D01*
X342367Y184363D01*
X342355Y184332D01*
X342315Y184259D01*
X341713Y182807D01*
X337893Y178987D01*
X332901Y176919D01*
X327499Y176919D01*
X322507Y178987D01*
X318687Y182807D01*
X316619Y187799D01*
X316619Y193201D01*
X318687Y198193D01*
X322507Y202013D01*
X327499Y204081D01*
X332765Y204081D01*
X332835Y204092D01*
X332907Y204094D01*
X332956Y204112D01*
X333007Y204120D01*
X333071Y204154D01*
X333138Y204179D01*
X333179Y204211D01*
X333225Y204236D01*
X333274Y204288D01*
X333330Y204332D01*
X333358Y204376D01*
X333394Y204414D01*
X333424Y204479D01*
X333463Y204539D01*
X333476Y204590D01*
X333498Y204637D01*
X333506Y204708D01*
X333523Y204778D01*
X333519Y204830D01*
X333525Y204881D01*
X333510Y204952D01*
X333504Y205023D01*
X333484Y205071D01*
X333473Y205122D01*
X333436Y205183D01*
X333408Y205249D01*
X333363Y205305D01*
X333346Y205333D01*
X333329Y205348D01*
X333303Y205380D01*
X330841Y207842D01*
X328675Y213071D01*
X328675Y218729D01*
X330841Y223958D01*
X334842Y227959D01*
X340071Y230125D01*
X345729Y230125D01*
X350958Y227959D01*
X354959Y223958D01*
X357125Y218729D01*
X357125Y213071D01*
X354959Y207842D01*
X350958Y203841D01*
X348823Y202957D01*
X348723Y202895D01*
X348623Y202835D01*
X348619Y202830D01*
X348614Y202827D01*
X348539Y202737D01*
X348463Y202648D01*
X348461Y202642D01*
X348457Y202637D01*
X348415Y202529D01*
X348371Y202420D01*
X348370Y202412D01*
X348369Y202408D01*
X348368Y202390D01*
X348353Y202253D01*
X348353Y107569D01*
X344548Y103764D01*
X344495Y103690D01*
X344435Y103620D01*
X344423Y103590D01*
X344404Y103564D01*
X344377Y103477D01*
X344343Y103392D01*
X344339Y103351D01*
X344332Y103329D01*
X344333Y103297D01*
X344325Y103225D01*
X344325Y84618D01*
X343432Y83725D01*
X322168Y83725D01*
G37*
%LPD*%
%LPC*%
G36*
X131668Y464725D02*
X131668Y464725D01*
X130775Y465618D01*
X130775Y486882D01*
X131668Y487775D01*
X150275Y487775D01*
X150366Y487789D01*
X150456Y487797D01*
X150486Y487809D01*
X150518Y487814D01*
X150599Y487857D01*
X150683Y487893D01*
X150715Y487919D01*
X150736Y487930D01*
X150758Y487953D01*
X150814Y487998D01*
X153056Y490240D01*
X153109Y490314D01*
X153169Y490384D01*
X153181Y490414D01*
X153200Y490440D01*
X153227Y490527D01*
X153261Y490612D01*
X153265Y490653D01*
X153272Y490675D01*
X153271Y490707D01*
X153279Y490779D01*
X153279Y564968D01*
X153264Y565064D01*
X153254Y565161D01*
X153244Y565185D01*
X153240Y565211D01*
X153194Y565297D01*
X153154Y565386D01*
X153137Y565405D01*
X153124Y565428D01*
X153054Y565495D01*
X152988Y565567D01*
X152965Y565580D01*
X152946Y565598D01*
X152858Y565639D01*
X152773Y565686D01*
X152747Y565690D01*
X152723Y565701D01*
X152626Y565712D01*
X152530Y565729D01*
X152505Y565726D01*
X152479Y565728D01*
X152384Y565708D01*
X152287Y565694D01*
X152264Y565682D01*
X152238Y565676D01*
X152155Y565626D01*
X152068Y565582D01*
X152050Y565563D01*
X152027Y565550D01*
X151964Y565476D01*
X151896Y565406D01*
X151880Y565378D01*
X151867Y565363D01*
X151855Y565332D01*
X151815Y565259D01*
X151213Y563807D01*
X147393Y559987D01*
X142401Y557919D01*
X136999Y557919D01*
X132007Y559987D01*
X128187Y563807D01*
X126119Y568799D01*
X126119Y574201D01*
X128187Y579193D01*
X132007Y583013D01*
X136999Y585081D01*
X142265Y585081D01*
X142335Y585092D01*
X142407Y585094D01*
X142456Y585112D01*
X142507Y585120D01*
X142571Y585154D01*
X142638Y585179D01*
X142679Y585211D01*
X142725Y585236D01*
X142774Y585288D01*
X142830Y585332D01*
X142858Y585376D01*
X142894Y585414D01*
X142924Y585479D01*
X142963Y585539D01*
X142976Y585590D01*
X142998Y585637D01*
X143006Y585708D01*
X143023Y585778D01*
X143019Y585830D01*
X143025Y585881D01*
X143010Y585952D01*
X143004Y586023D01*
X142984Y586071D01*
X142973Y586122D01*
X142936Y586183D01*
X142908Y586249D01*
X142863Y586305D01*
X142846Y586333D01*
X142829Y586348D01*
X142803Y586380D01*
X140341Y588842D01*
X138175Y594071D01*
X138175Y599729D01*
X140341Y604958D01*
X144342Y608959D01*
X149571Y611125D01*
X155229Y611125D01*
X160458Y608959D01*
X164459Y604958D01*
X166625Y599729D01*
X166625Y594071D01*
X164459Y588842D01*
X160458Y584841D01*
X158323Y583957D01*
X158223Y583895D01*
X158123Y583835D01*
X158119Y583830D01*
X158114Y583827D01*
X158039Y583737D01*
X157963Y583648D01*
X157961Y583642D01*
X157957Y583637D01*
X157915Y583529D01*
X157871Y583420D01*
X157870Y583412D01*
X157869Y583408D01*
X157868Y583390D01*
X157853Y583253D01*
X157853Y488569D01*
X154048Y484764D01*
X153995Y484690D01*
X153935Y484620D01*
X153923Y484590D01*
X153904Y484564D01*
X153877Y484477D01*
X153843Y484392D01*
X153839Y484351D01*
X153832Y484329D01*
X153833Y484297D01*
X153825Y484225D01*
X153825Y465618D01*
X152932Y464725D01*
X131668Y464725D01*
G37*
%LPD*%
%LPC*%
G36*
X-58832Y464725D02*
X-58832Y464725D01*
X-59725Y465618D01*
X-59725Y486882D01*
X-58832Y487775D01*
X-40225Y487775D01*
X-40134Y487789D01*
X-40044Y487797D01*
X-40014Y487809D01*
X-39982Y487814D01*
X-39901Y487857D01*
X-39817Y487893D01*
X-39785Y487919D01*
X-39764Y487930D01*
X-39742Y487953D01*
X-39686Y487998D01*
X-37444Y490240D01*
X-37391Y490314D01*
X-37331Y490384D01*
X-37319Y490414D01*
X-37300Y490440D01*
X-37273Y490527D01*
X-37239Y490612D01*
X-37235Y490653D01*
X-37228Y490675D01*
X-37229Y490707D01*
X-37221Y490779D01*
X-37221Y564968D01*
X-37236Y565064D01*
X-37246Y565161D01*
X-37256Y565185D01*
X-37260Y565211D01*
X-37306Y565297D01*
X-37346Y565386D01*
X-37363Y565405D01*
X-37376Y565428D01*
X-37446Y565495D01*
X-37512Y565567D01*
X-37535Y565580D01*
X-37554Y565598D01*
X-37642Y565639D01*
X-37727Y565686D01*
X-37753Y565690D01*
X-37777Y565701D01*
X-37874Y565712D01*
X-37970Y565729D01*
X-37995Y565726D01*
X-38021Y565728D01*
X-38116Y565708D01*
X-38213Y565694D01*
X-38236Y565682D01*
X-38262Y565676D01*
X-38345Y565626D01*
X-38432Y565582D01*
X-38450Y565563D01*
X-38473Y565550D01*
X-38536Y565476D01*
X-38604Y565406D01*
X-38620Y565378D01*
X-38633Y565363D01*
X-38645Y565332D01*
X-38685Y565259D01*
X-39287Y563807D01*
X-43107Y559987D01*
X-48099Y557919D01*
X-53501Y557919D01*
X-58493Y559987D01*
X-62313Y563807D01*
X-64381Y568799D01*
X-64381Y574201D01*
X-62313Y579193D01*
X-58493Y583013D01*
X-53501Y585081D01*
X-48235Y585081D01*
X-48165Y585092D01*
X-48093Y585094D01*
X-48044Y585112D01*
X-47993Y585120D01*
X-47929Y585154D01*
X-47862Y585179D01*
X-47821Y585211D01*
X-47775Y585236D01*
X-47726Y585288D01*
X-47670Y585332D01*
X-47642Y585376D01*
X-47606Y585414D01*
X-47576Y585479D01*
X-47537Y585539D01*
X-47524Y585590D01*
X-47502Y585637D01*
X-47494Y585708D01*
X-47477Y585778D01*
X-47481Y585830D01*
X-47475Y585881D01*
X-47490Y585952D01*
X-47496Y586023D01*
X-47516Y586071D01*
X-47527Y586122D01*
X-47564Y586183D01*
X-47592Y586249D01*
X-47637Y586305D01*
X-47654Y586333D01*
X-47671Y586348D01*
X-47697Y586380D01*
X-50159Y588842D01*
X-52325Y594071D01*
X-52325Y599729D01*
X-50159Y604958D01*
X-46158Y608959D01*
X-40929Y611125D01*
X-35271Y611125D01*
X-30042Y608959D01*
X-26041Y604958D01*
X-23875Y599729D01*
X-23875Y594071D01*
X-26041Y588842D01*
X-30042Y584841D01*
X-32177Y583957D01*
X-32277Y583895D01*
X-32377Y583835D01*
X-32381Y583830D01*
X-32386Y583827D01*
X-32461Y583737D01*
X-32537Y583648D01*
X-32539Y583642D01*
X-32543Y583637D01*
X-32585Y583529D01*
X-32629Y583420D01*
X-32630Y583412D01*
X-32631Y583408D01*
X-32632Y583390D01*
X-32647Y583253D01*
X-32647Y488569D01*
X-36452Y484764D01*
X-36505Y484690D01*
X-36565Y484620D01*
X-36577Y484590D01*
X-36596Y484564D01*
X-36623Y484477D01*
X-36657Y484392D01*
X-36661Y484351D01*
X-36668Y484329D01*
X-36667Y484297D01*
X-36675Y484225D01*
X-36675Y465618D01*
X-37568Y464725D01*
X-58832Y464725D01*
G37*
%LPD*%
%LPC*%
G36*
X-58832Y83725D02*
X-58832Y83725D01*
X-59725Y84618D01*
X-59725Y105882D01*
X-58832Y106775D01*
X-40224Y106775D01*
X-40134Y106789D01*
X-40043Y106797D01*
X-40014Y106809D01*
X-39982Y106814D01*
X-39901Y106857D01*
X-39817Y106893D01*
X-39785Y106919D01*
X-39764Y106930D01*
X-39742Y106953D01*
X-39686Y106998D01*
X-37444Y109240D01*
X-37390Y109314D01*
X-37331Y109384D01*
X-37319Y109414D01*
X-37300Y109440D01*
X-37273Y109527D01*
X-37239Y109612D01*
X-37235Y109653D01*
X-37228Y109675D01*
X-37229Y109707D01*
X-37221Y109779D01*
X-37221Y183968D01*
X-37236Y184064D01*
X-37246Y184161D01*
X-37256Y184185D01*
X-37260Y184211D01*
X-37306Y184297D01*
X-37346Y184386D01*
X-37363Y184405D01*
X-37376Y184428D01*
X-37446Y184495D01*
X-37512Y184567D01*
X-37535Y184580D01*
X-37554Y184598D01*
X-37642Y184639D01*
X-37727Y184686D01*
X-37753Y184690D01*
X-37777Y184701D01*
X-37874Y184712D01*
X-37970Y184729D01*
X-37995Y184726D01*
X-38021Y184728D01*
X-38116Y184708D01*
X-38213Y184694D01*
X-38236Y184682D01*
X-38262Y184676D01*
X-38345Y184626D01*
X-38432Y184582D01*
X-38450Y184563D01*
X-38473Y184550D01*
X-38536Y184476D01*
X-38604Y184406D01*
X-38620Y184378D01*
X-38633Y184363D01*
X-38645Y184332D01*
X-38685Y184259D01*
X-39287Y182807D01*
X-43107Y178987D01*
X-48099Y176919D01*
X-53501Y176919D01*
X-58493Y178987D01*
X-62313Y182807D01*
X-64381Y187799D01*
X-64381Y193201D01*
X-62313Y198193D01*
X-58493Y202013D01*
X-53501Y204081D01*
X-48235Y204081D01*
X-48165Y204092D01*
X-48093Y204094D01*
X-48044Y204112D01*
X-47993Y204120D01*
X-47929Y204154D01*
X-47862Y204179D01*
X-47821Y204211D01*
X-47775Y204236D01*
X-47726Y204288D01*
X-47670Y204332D01*
X-47642Y204376D01*
X-47606Y204414D01*
X-47576Y204479D01*
X-47537Y204539D01*
X-47524Y204590D01*
X-47502Y204637D01*
X-47494Y204708D01*
X-47477Y204778D01*
X-47481Y204830D01*
X-47475Y204881D01*
X-47490Y204952D01*
X-47496Y205023D01*
X-47516Y205071D01*
X-47527Y205122D01*
X-47564Y205183D01*
X-47592Y205249D01*
X-47637Y205305D01*
X-47654Y205333D01*
X-47671Y205348D01*
X-47697Y205380D01*
X-50159Y207842D01*
X-52325Y213071D01*
X-52325Y218729D01*
X-50159Y223958D01*
X-46158Y227959D01*
X-40929Y230125D01*
X-35271Y230125D01*
X-30042Y227959D01*
X-26041Y223958D01*
X-23875Y218729D01*
X-23875Y213071D01*
X-26041Y207842D01*
X-30042Y203841D01*
X-32177Y202957D01*
X-32277Y202895D01*
X-32377Y202835D01*
X-32381Y202830D01*
X-32386Y202827D01*
X-32461Y202737D01*
X-32537Y202648D01*
X-32539Y202642D01*
X-32543Y202637D01*
X-32585Y202529D01*
X-32629Y202420D01*
X-32630Y202412D01*
X-32631Y202408D01*
X-32632Y202390D01*
X-32647Y202253D01*
X-32647Y107569D01*
X-36452Y103764D01*
X-36505Y103690D01*
X-36565Y103620D01*
X-36577Y103590D01*
X-36596Y103564D01*
X-36623Y103477D01*
X-36657Y103392D01*
X-36661Y103351D01*
X-36668Y103329D01*
X-36667Y103297D01*
X-36675Y103226D01*
X-36675Y84618D01*
X-37568Y83725D01*
X-58832Y83725D01*
G37*
%LPD*%
%LPC*%
G36*
X187198Y165419D02*
X187198Y165419D01*
X180819Y167128D01*
X175100Y170430D01*
X170430Y175100D01*
X167128Y180819D01*
X165419Y187198D01*
X165419Y193802D01*
X167128Y200181D01*
X170430Y205900D01*
X175100Y210570D01*
X180819Y213872D01*
X187198Y215581D01*
X193802Y215581D01*
X200181Y213872D01*
X205900Y210570D01*
X210570Y205900D01*
X213872Y200181D01*
X215581Y193802D01*
X215581Y187198D01*
X213872Y180819D01*
X210570Y175100D01*
X205900Y170430D01*
X200181Y167128D01*
X193802Y165419D01*
X187198Y165419D01*
G37*
%LPD*%
%LPC*%
G36*
X377698Y165419D02*
X377698Y165419D01*
X371319Y167128D01*
X365600Y170430D01*
X360930Y175100D01*
X357628Y180819D01*
X355919Y187198D01*
X355919Y193802D01*
X357628Y200181D01*
X360930Y205900D01*
X365600Y210570D01*
X371319Y213872D01*
X377698Y215581D01*
X384302Y215581D01*
X390681Y213872D01*
X396400Y210570D01*
X401070Y205900D01*
X404372Y200181D01*
X406081Y193802D01*
X406081Y187198D01*
X404372Y180819D01*
X401070Y175100D01*
X396400Y170430D01*
X390681Y167128D01*
X384302Y165419D01*
X377698Y165419D01*
G37*
%LPD*%
%LPC*%
G36*
X-3302Y165419D02*
X-3302Y165419D01*
X-9681Y167128D01*
X-15400Y170430D01*
X-20070Y175100D01*
X-23372Y180819D01*
X-25081Y187198D01*
X-25081Y193802D01*
X-23372Y200181D01*
X-20070Y205900D01*
X-15400Y210570D01*
X-9681Y213872D01*
X-3302Y215581D01*
X3302Y215581D01*
X9681Y213872D01*
X15400Y210570D01*
X20070Y205900D01*
X23372Y200181D01*
X25081Y193802D01*
X25081Y187198D01*
X23372Y180819D01*
X20070Y175100D01*
X15400Y170430D01*
X9681Y167128D01*
X3302Y165419D01*
X-3302Y165419D01*
G37*
%LPD*%
%LPC*%
G36*
X26402Y898715D02*
X26402Y898715D01*
X22388Y900378D01*
X19315Y903450D01*
X17652Y907465D01*
X17652Y911810D01*
X19315Y915825D01*
X22388Y918897D01*
X26402Y920560D01*
X27072Y920560D01*
X27162Y920575D01*
X27253Y920582D01*
X27283Y920595D01*
X27315Y920600D01*
X27395Y920643D01*
X27480Y920678D01*
X27512Y920704D01*
X27532Y920715D01*
X27554Y920738D01*
X27611Y920783D01*
X27851Y921024D01*
X29875Y923048D01*
X29919Y923108D01*
X29956Y923148D01*
X29962Y923162D01*
X29988Y923191D01*
X30000Y923222D01*
X30019Y923248D01*
X30046Y923335D01*
X30080Y923420D01*
X30084Y923460D01*
X30091Y923483D01*
X30090Y923515D01*
X30098Y923586D01*
X30098Y933514D01*
X40026Y933514D01*
X40116Y933529D01*
X40207Y933536D01*
X40237Y933549D01*
X40269Y933554D01*
X40350Y933597D01*
X40434Y933632D01*
X40466Y933658D01*
X40486Y933669D01*
X40509Y933692D01*
X40564Y933737D01*
X51614Y944787D01*
X155264Y944787D01*
X155284Y944790D01*
X155303Y944788D01*
X155405Y944810D01*
X155507Y944826D01*
X155524Y944836D01*
X155544Y944840D01*
X155633Y944893D01*
X155724Y944942D01*
X155738Y944956D01*
X155755Y944966D01*
X155822Y945045D01*
X155894Y945120D01*
X155902Y945138D01*
X155915Y945153D01*
X155954Y945249D01*
X155997Y945343D01*
X155999Y945363D01*
X156007Y945381D01*
X156025Y945548D01*
X156025Y946632D01*
X156918Y947525D01*
X172682Y947525D01*
X173575Y946632D01*
X173575Y945548D01*
X173578Y945528D01*
X173576Y945509D01*
X173598Y945407D01*
X173614Y945305D01*
X173624Y945288D01*
X173628Y945268D01*
X173681Y945179D01*
X173730Y945088D01*
X173744Y945074D01*
X173754Y945057D01*
X173833Y944990D01*
X173908Y944918D01*
X173926Y944910D01*
X173941Y944897D01*
X174037Y944858D01*
X174131Y944815D01*
X174151Y944813D01*
X174169Y944805D01*
X174336Y944787D01*
X206664Y944787D01*
X206684Y944790D01*
X206703Y944788D01*
X206805Y944810D01*
X206907Y944826D01*
X206924Y944836D01*
X206944Y944840D01*
X207033Y944893D01*
X207124Y944942D01*
X207138Y944956D01*
X207155Y944966D01*
X207222Y945045D01*
X207294Y945120D01*
X207302Y945138D01*
X207315Y945153D01*
X207354Y945249D01*
X207397Y945343D01*
X207399Y945363D01*
X207407Y945381D01*
X207425Y945548D01*
X207425Y946632D01*
X208318Y947525D01*
X224082Y947525D01*
X224975Y946632D01*
X224975Y938368D01*
X224082Y937475D01*
X208318Y937475D01*
X207425Y938368D01*
X207425Y939452D01*
X207422Y939472D01*
X207424Y939491D01*
X207402Y939593D01*
X207386Y939695D01*
X207376Y939712D01*
X207372Y939732D01*
X207319Y939821D01*
X207270Y939912D01*
X207256Y939926D01*
X207246Y939943D01*
X207167Y940010D01*
X207092Y940082D01*
X207074Y940090D01*
X207059Y940103D01*
X206963Y940142D01*
X206869Y940185D01*
X206849Y940187D01*
X206831Y940195D01*
X206664Y940213D01*
X174336Y940213D01*
X174316Y940210D01*
X174297Y940212D01*
X174195Y940190D01*
X174093Y940174D01*
X174076Y940164D01*
X174056Y940160D01*
X173967Y940107D01*
X173876Y940058D01*
X173862Y940044D01*
X173845Y940034D01*
X173778Y939955D01*
X173706Y939880D01*
X173698Y939862D01*
X173685Y939847D01*
X173646Y939751D01*
X173603Y939657D01*
X173601Y939637D01*
X173593Y939619D01*
X173575Y939452D01*
X173575Y938368D01*
X172682Y937475D01*
X156918Y937475D01*
X156025Y938368D01*
X156025Y939452D01*
X156022Y939472D01*
X156024Y939491D01*
X156002Y939593D01*
X155986Y939695D01*
X155976Y939712D01*
X155972Y939732D01*
X155919Y939821D01*
X155870Y939912D01*
X155856Y939926D01*
X155846Y939943D01*
X155767Y940010D01*
X155692Y940082D01*
X155674Y940090D01*
X155659Y940103D01*
X155563Y940142D01*
X155469Y940185D01*
X155449Y940187D01*
X155431Y940195D01*
X155264Y940213D01*
X53824Y940213D01*
X53734Y940199D01*
X53643Y940191D01*
X53613Y940179D01*
X53581Y940174D01*
X53500Y940131D01*
X53416Y940095D01*
X53384Y940069D01*
X53364Y940058D01*
X53341Y940035D01*
X53285Y939990D01*
X33751Y920456D01*
X33724Y920418D01*
X33690Y920387D01*
X33653Y920319D01*
X33607Y920256D01*
X33594Y920212D01*
X33572Y920172D01*
X33558Y920095D01*
X33535Y920021D01*
X33536Y919975D01*
X33528Y919930D01*
X33539Y919853D01*
X33541Y919775D01*
X33557Y919732D01*
X33564Y919686D01*
X33599Y919617D01*
X33626Y919544D01*
X33654Y919508D01*
X33675Y919467D01*
X33731Y919413D01*
X33779Y919352D01*
X33818Y919327D01*
X33851Y919295D01*
X33971Y919229D01*
X33986Y919219D01*
X33991Y919218D01*
X33998Y919214D01*
X34762Y918897D01*
X37835Y915825D01*
X39498Y911810D01*
X39498Y907465D01*
X37835Y903450D01*
X34762Y900378D01*
X30748Y898715D01*
X26402Y898715D01*
G37*
%LPD*%
%LPC*%
G36*
X429099Y176919D02*
X429099Y176919D01*
X424107Y178987D01*
X420287Y182807D01*
X418219Y187799D01*
X418219Y193201D01*
X420287Y198193D01*
X424107Y202013D01*
X429099Y204081D01*
X434501Y204081D01*
X439493Y202013D01*
X443313Y198193D01*
X445381Y193201D01*
X445381Y187799D01*
X443313Y182807D01*
X439493Y178987D01*
X434501Y176919D01*
X429099Y176919D01*
G37*
%LPD*%
%LPC*%
G36*
X48099Y367419D02*
X48099Y367419D01*
X43107Y369487D01*
X39287Y373307D01*
X37219Y378299D01*
X37219Y383701D01*
X39287Y388693D01*
X43107Y392513D01*
X48099Y394581D01*
X53501Y394581D01*
X58493Y392513D01*
X62313Y388693D01*
X64381Y383701D01*
X64381Y378299D01*
X62313Y373307D01*
X58493Y369487D01*
X53501Y367419D01*
X48099Y367419D01*
G37*
%LPD*%
%LPC*%
G36*
X238599Y367419D02*
X238599Y367419D01*
X233607Y369487D01*
X229787Y373307D01*
X227719Y378299D01*
X227719Y383701D01*
X229787Y388693D01*
X233607Y392513D01*
X238599Y394581D01*
X244001Y394581D01*
X248993Y392513D01*
X252813Y388693D01*
X254881Y383701D01*
X254881Y378299D01*
X252813Y373307D01*
X248993Y369487D01*
X244001Y367419D01*
X238599Y367419D01*
G37*
%LPD*%
%LPC*%
G36*
X429099Y367419D02*
X429099Y367419D01*
X424107Y369487D01*
X420287Y373307D01*
X418219Y378299D01*
X418219Y383701D01*
X420287Y388693D01*
X424107Y392513D01*
X429099Y394581D01*
X434501Y394581D01*
X439493Y392513D01*
X443313Y388693D01*
X445381Y383701D01*
X445381Y378299D01*
X443313Y373307D01*
X439493Y369487D01*
X434501Y367419D01*
X429099Y367419D01*
G37*
%LPD*%
%LPC*%
G36*
X238599Y176919D02*
X238599Y176919D01*
X233607Y178987D01*
X229787Y182807D01*
X227719Y187799D01*
X227719Y193201D01*
X229787Y198193D01*
X233607Y202013D01*
X238599Y204081D01*
X244001Y204081D01*
X248993Y202013D01*
X252813Y198193D01*
X254881Y193201D01*
X254881Y187799D01*
X252813Y182807D01*
X248993Y178987D01*
X244001Y176919D01*
X238599Y176919D01*
G37*
%LPD*%
%LPC*%
G36*
X48099Y176919D02*
X48099Y176919D01*
X43107Y178987D01*
X39287Y182807D01*
X37219Y187799D01*
X37219Y193201D01*
X39287Y198193D01*
X43107Y202013D01*
X48099Y204081D01*
X53501Y204081D01*
X58493Y202013D01*
X62313Y198193D01*
X64381Y193201D01*
X64381Y187799D01*
X62313Y182807D01*
X58493Y178987D01*
X53501Y176919D01*
X48099Y176919D01*
G37*
%LPD*%
%LPC*%
G36*
X238599Y748419D02*
X238599Y748419D01*
X233607Y750487D01*
X229787Y754307D01*
X227719Y759299D01*
X227719Y764701D01*
X229787Y769693D01*
X233607Y773513D01*
X238599Y775581D01*
X244001Y775581D01*
X248993Y773513D01*
X252813Y769693D01*
X254881Y764701D01*
X254881Y759299D01*
X252813Y754307D01*
X248993Y750487D01*
X244001Y748419D01*
X238599Y748419D01*
G37*
%LPD*%
%LPC*%
G36*
X48099Y557919D02*
X48099Y557919D01*
X43107Y559987D01*
X39287Y563807D01*
X37219Y568799D01*
X37219Y574201D01*
X39287Y579193D01*
X43107Y583013D01*
X48099Y585081D01*
X53501Y585081D01*
X58493Y583013D01*
X62313Y579193D01*
X64381Y574201D01*
X64381Y568799D01*
X62313Y563807D01*
X58493Y559987D01*
X53501Y557919D01*
X48099Y557919D01*
G37*
%LPD*%
%LPC*%
G36*
X429099Y557919D02*
X429099Y557919D01*
X424107Y559987D01*
X420287Y563807D01*
X418219Y568799D01*
X418219Y574201D01*
X420287Y579193D01*
X424107Y583013D01*
X429099Y585081D01*
X434501Y585081D01*
X439493Y583013D01*
X443313Y579193D01*
X445381Y574201D01*
X445381Y568799D01*
X443313Y563807D01*
X439493Y559987D01*
X434501Y557919D01*
X429099Y557919D01*
G37*
%LPD*%
%LPC*%
G36*
X238599Y557919D02*
X238599Y557919D01*
X233607Y559987D01*
X229787Y563807D01*
X227719Y568799D01*
X227719Y574201D01*
X229787Y579193D01*
X233607Y583013D01*
X238599Y585081D01*
X244001Y585081D01*
X248993Y583013D01*
X252813Y579193D01*
X254881Y574201D01*
X254881Y568799D01*
X252813Y563807D01*
X248993Y559987D01*
X244001Y557919D01*
X238599Y557919D01*
G37*
%LPD*%
%LPC*%
G36*
X236408Y655225D02*
X236408Y655225D01*
X232172Y656980D01*
X228930Y660222D01*
X227175Y664458D01*
X227175Y669042D01*
X228930Y673278D01*
X232172Y676520D01*
X236408Y678275D01*
X240992Y678275D01*
X245228Y676520D01*
X248470Y673278D01*
X250225Y669042D01*
X250225Y664458D01*
X248470Y660222D01*
X245228Y656980D01*
X240992Y655225D01*
X236408Y655225D01*
G37*
%LPD*%
%LPC*%
G36*
X45908Y83725D02*
X45908Y83725D01*
X41672Y85480D01*
X38430Y88722D01*
X36675Y92958D01*
X36675Y97542D01*
X38430Y101778D01*
X41672Y105020D01*
X45908Y106775D01*
X50492Y106775D01*
X54728Y105020D01*
X57970Y101778D01*
X59725Y97542D01*
X59725Y92958D01*
X57970Y88722D01*
X54728Y85480D01*
X50492Y83725D01*
X45908Y83725D01*
G37*
%LPD*%
%LPC*%
G36*
X236408Y83725D02*
X236408Y83725D01*
X232172Y85480D01*
X228930Y88722D01*
X227175Y92958D01*
X227175Y97542D01*
X228930Y101778D01*
X232172Y105020D01*
X236408Y106775D01*
X240992Y106775D01*
X245228Y105020D01*
X248470Y101778D01*
X250225Y97542D01*
X250225Y92958D01*
X248470Y88722D01*
X245228Y85480D01*
X240992Y83725D01*
X236408Y83725D01*
G37*
%LPD*%
%LPC*%
G36*
X426908Y464725D02*
X426908Y464725D01*
X422672Y466480D01*
X419430Y469722D01*
X417675Y473958D01*
X417675Y478542D01*
X419430Y482778D01*
X422672Y486020D01*
X426908Y487775D01*
X431492Y487775D01*
X435728Y486020D01*
X438970Y482778D01*
X440725Y478542D01*
X440725Y473958D01*
X438970Y469722D01*
X435728Y466480D01*
X431492Y464725D01*
X426908Y464725D01*
G37*
%LPD*%
%LPC*%
G36*
X236408Y464725D02*
X236408Y464725D01*
X232172Y466480D01*
X228930Y469722D01*
X227175Y473958D01*
X227175Y478542D01*
X228930Y482778D01*
X232172Y486020D01*
X236408Y487775D01*
X240992Y487775D01*
X245228Y486020D01*
X248470Y482778D01*
X250225Y478542D01*
X250225Y473958D01*
X248470Y469722D01*
X245228Y466480D01*
X240992Y464725D01*
X236408Y464725D01*
G37*
%LPD*%
%LPC*%
G36*
X45908Y464725D02*
X45908Y464725D01*
X41672Y466480D01*
X38430Y469722D01*
X36675Y473958D01*
X36675Y478542D01*
X38430Y482778D01*
X41672Y486020D01*
X45908Y487775D01*
X50492Y487775D01*
X54728Y486020D01*
X57970Y482778D01*
X59725Y478542D01*
X59725Y473958D01*
X57970Y469722D01*
X54728Y466480D01*
X50492Y464725D01*
X45908Y464725D01*
G37*
%LPD*%
%LPC*%
G36*
X426908Y83725D02*
X426908Y83725D01*
X422672Y85480D01*
X419430Y88722D01*
X417675Y92958D01*
X417675Y97542D01*
X419430Y101778D01*
X422672Y105020D01*
X426908Y106775D01*
X431492Y106775D01*
X435728Y105020D01*
X438970Y101778D01*
X440725Y97542D01*
X440725Y92958D01*
X438970Y88722D01*
X435728Y85480D01*
X431492Y83725D01*
X426908Y83725D01*
G37*
%LPD*%
%LPC*%
G36*
X45908Y274225D02*
X45908Y274225D01*
X41672Y275980D01*
X38430Y279222D01*
X36675Y283458D01*
X36675Y288042D01*
X38430Y292278D01*
X41672Y295520D01*
X45908Y297275D01*
X50492Y297275D01*
X54728Y295520D01*
X57970Y292278D01*
X59725Y288042D01*
X59725Y283458D01*
X57970Y279222D01*
X54728Y275980D01*
X50492Y274225D01*
X45908Y274225D01*
G37*
%LPD*%
%LPC*%
G36*
X426908Y274225D02*
X426908Y274225D01*
X422672Y275980D01*
X419430Y279222D01*
X417675Y283458D01*
X417675Y288042D01*
X419430Y292278D01*
X422672Y295520D01*
X426908Y297275D01*
X431492Y297275D01*
X435728Y295520D01*
X438970Y292278D01*
X440725Y288042D01*
X440725Y283458D01*
X438970Y279222D01*
X435728Y275980D01*
X431492Y274225D01*
X426908Y274225D01*
G37*
%LPD*%
%LPC*%
G36*
X236408Y274225D02*
X236408Y274225D01*
X232172Y275980D01*
X228930Y279222D01*
X227175Y283458D01*
X227175Y288042D01*
X228930Y292278D01*
X232172Y295520D01*
X236408Y297275D01*
X240992Y297275D01*
X245228Y295520D01*
X248470Y292278D01*
X250225Y288042D01*
X250225Y283458D01*
X248470Y279222D01*
X245228Y275980D01*
X240992Y274225D01*
X236408Y274225D01*
G37*
%LPD*%
%LPC*%
G36*
X26402Y695515D02*
X26402Y695515D01*
X22388Y697178D01*
X19315Y700250D01*
X17652Y704265D01*
X17652Y708610D01*
X19315Y712625D01*
X22388Y715697D01*
X26402Y717360D01*
X30748Y717360D01*
X34762Y715697D01*
X37835Y712625D01*
X39498Y708610D01*
X39498Y704265D01*
X37835Y700250D01*
X34762Y697178D01*
X30748Y695515D01*
X26402Y695515D01*
G37*
%LPD*%
%LPC*%
G36*
X-125998Y924115D02*
X-125998Y924115D01*
X-130012Y925778D01*
X-133085Y928850D01*
X-134748Y932865D01*
X-134748Y937210D01*
X-133085Y941225D01*
X-130012Y944297D01*
X-125998Y945960D01*
X-121652Y945960D01*
X-117638Y944297D01*
X-114565Y941225D01*
X-112902Y937210D01*
X-112902Y932865D01*
X-114565Y928850D01*
X-117638Y925778D01*
X-121652Y924115D01*
X-125998Y924115D01*
G37*
%LPD*%
%LPC*%
G36*
X26402Y873315D02*
X26402Y873315D01*
X22388Y874978D01*
X19315Y878050D01*
X17652Y882065D01*
X17652Y886410D01*
X19315Y890425D01*
X22388Y893497D01*
X26402Y895160D01*
X30748Y895160D01*
X34762Y893497D01*
X37835Y890425D01*
X39498Y886410D01*
X39498Y882065D01*
X37835Y878050D01*
X34762Y874978D01*
X30748Y873315D01*
X26402Y873315D01*
G37*
%LPD*%
%LPC*%
G36*
X26402Y670115D02*
X26402Y670115D01*
X22388Y671778D01*
X19315Y674850D01*
X17652Y678865D01*
X17652Y683210D01*
X19315Y687225D01*
X22388Y690297D01*
X26402Y691960D01*
X30748Y691960D01*
X34762Y690297D01*
X37835Y687225D01*
X39498Y683210D01*
X39498Y678865D01*
X37835Y674850D01*
X34762Y671778D01*
X30748Y670115D01*
X26402Y670115D01*
G37*
%LPD*%
%LPC*%
G36*
X26402Y720915D02*
X26402Y720915D01*
X22388Y722578D01*
X19315Y725650D01*
X17652Y729665D01*
X17652Y734010D01*
X19315Y738025D01*
X22388Y741097D01*
X26402Y742760D01*
X30748Y742760D01*
X34762Y741097D01*
X37835Y738025D01*
X39498Y734010D01*
X39498Y729665D01*
X37835Y725650D01*
X34762Y722578D01*
X30748Y720915D01*
X26402Y720915D01*
G37*
%LPD*%
%LPC*%
G36*
X26402Y746315D02*
X26402Y746315D01*
X22388Y747978D01*
X19315Y751050D01*
X17652Y755065D01*
X17652Y759410D01*
X19315Y763425D01*
X22388Y766497D01*
X26402Y768160D01*
X30748Y768160D01*
X34762Y766497D01*
X37835Y763425D01*
X39498Y759410D01*
X39498Y755065D01*
X37835Y751050D01*
X34762Y747978D01*
X30748Y746315D01*
X26402Y746315D01*
G37*
%LPD*%
%LPC*%
G36*
X26402Y771715D02*
X26402Y771715D01*
X22388Y773378D01*
X19315Y776450D01*
X17652Y780465D01*
X17652Y784810D01*
X19315Y788825D01*
X22388Y791897D01*
X26402Y793560D01*
X30748Y793560D01*
X34762Y791897D01*
X37835Y788825D01*
X39498Y784810D01*
X39498Y780465D01*
X37835Y776450D01*
X34762Y773378D01*
X30748Y771715D01*
X26402Y771715D01*
G37*
%LPD*%
%LPC*%
G36*
X-125998Y949515D02*
X-125998Y949515D01*
X-130012Y951178D01*
X-133085Y954250D01*
X-134748Y958265D01*
X-134748Y962610D01*
X-133085Y966625D01*
X-130012Y969697D01*
X-125998Y971360D01*
X-121652Y971360D01*
X-117638Y969697D01*
X-114565Y966625D01*
X-112902Y962610D01*
X-112902Y958265D01*
X-114565Y954250D01*
X-117638Y951178D01*
X-121652Y949515D01*
X-125998Y949515D01*
G37*
%LPD*%
%LPC*%
G36*
X26402Y949515D02*
X26402Y949515D01*
X22388Y951178D01*
X19315Y954250D01*
X17652Y958265D01*
X17652Y962610D01*
X19315Y966625D01*
X22388Y969697D01*
X26402Y971360D01*
X30748Y971360D01*
X34762Y969697D01*
X37835Y966625D01*
X39498Y962610D01*
X39498Y958265D01*
X37835Y954250D01*
X34762Y951178D01*
X30748Y949515D01*
X26402Y949515D01*
G37*
%LPD*%
%LPC*%
G36*
X26402Y797115D02*
X26402Y797115D01*
X22388Y798778D01*
X19315Y801850D01*
X17652Y805865D01*
X17652Y810210D01*
X19315Y814225D01*
X22388Y817297D01*
X26402Y818960D01*
X30748Y818960D01*
X34762Y817297D01*
X37835Y814225D01*
X39498Y810210D01*
X39498Y805865D01*
X37835Y801850D01*
X34762Y798778D01*
X30748Y797115D01*
X26402Y797115D01*
G37*
%LPD*%
%LPC*%
G36*
X-125998Y847915D02*
X-125998Y847915D01*
X-130012Y849578D01*
X-133085Y852650D01*
X-134748Y856665D01*
X-134748Y861010D01*
X-133085Y865025D01*
X-130012Y868097D01*
X-125998Y869760D01*
X-121652Y869760D01*
X-117638Y868097D01*
X-114565Y865025D01*
X-112902Y861010D01*
X-112902Y856665D01*
X-114565Y852650D01*
X-117638Y849578D01*
X-121652Y847915D01*
X-125998Y847915D01*
G37*
%LPD*%
%LPC*%
G36*
X-125998Y797115D02*
X-125998Y797115D01*
X-130012Y798778D01*
X-133085Y801850D01*
X-134748Y805865D01*
X-134748Y810210D01*
X-133085Y814225D01*
X-130012Y817297D01*
X-125998Y818960D01*
X-121652Y818960D01*
X-117638Y817297D01*
X-114565Y814225D01*
X-112902Y810210D01*
X-112902Y805865D01*
X-114565Y801850D01*
X-117638Y798778D01*
X-121652Y797115D01*
X-125998Y797115D01*
G37*
%LPD*%
%LPC*%
G36*
X26402Y847915D02*
X26402Y847915D01*
X22388Y849578D01*
X19315Y852650D01*
X17652Y856665D01*
X17652Y861010D01*
X19315Y865025D01*
X22388Y868097D01*
X26402Y869760D01*
X30748Y869760D01*
X34762Y868097D01*
X37835Y865025D01*
X39498Y861010D01*
X39498Y856665D01*
X37835Y852650D01*
X34762Y849578D01*
X30748Y847915D01*
X26402Y847915D01*
G37*
%LPD*%
%LPC*%
G36*
X26402Y822515D02*
X26402Y822515D01*
X22388Y824178D01*
X19315Y827250D01*
X17652Y831265D01*
X17652Y835610D01*
X19315Y839625D01*
X22388Y842697D01*
X26402Y844360D01*
X30748Y844360D01*
X34762Y842697D01*
X37835Y839625D01*
X39498Y835610D01*
X39498Y831265D01*
X37835Y827250D01*
X34762Y824178D01*
X30748Y822515D01*
X26402Y822515D01*
G37*
%LPD*%
%LPC*%
G36*
X-125998Y822515D02*
X-125998Y822515D01*
X-130012Y824178D01*
X-133085Y827250D01*
X-134748Y831265D01*
X-134748Y835610D01*
X-133085Y839625D01*
X-130012Y842697D01*
X-125998Y844360D01*
X-121652Y844360D01*
X-117638Y842697D01*
X-114565Y839625D01*
X-112902Y835610D01*
X-112902Y831265D01*
X-114565Y827250D01*
X-117638Y824178D01*
X-121652Y822515D01*
X-125998Y822515D01*
G37*
%LPD*%
%LPC*%
G36*
X-125998Y771715D02*
X-125998Y771715D01*
X-130012Y773378D01*
X-133085Y776450D01*
X-134748Y780465D01*
X-134748Y784810D01*
X-133085Y788825D01*
X-130012Y791897D01*
X-125998Y793560D01*
X-121652Y793560D01*
X-117638Y791897D01*
X-114565Y788825D01*
X-112902Y784810D01*
X-112902Y780465D01*
X-114565Y776450D01*
X-117638Y773378D01*
X-121652Y771715D01*
X-125998Y771715D01*
G37*
%LPD*%
%LPC*%
G36*
X93245Y180419D02*
X93245Y180419D01*
X89540Y181954D01*
X86704Y184790D01*
X85169Y188495D01*
X85169Y192505D01*
X86704Y196210D01*
X89540Y199046D01*
X93245Y200581D01*
X97255Y200581D01*
X100960Y199046D01*
X103796Y196210D01*
X105331Y192505D01*
X105331Y188495D01*
X103796Y184790D01*
X100960Y181954D01*
X97255Y180419D01*
X93245Y180419D01*
G37*
%LPD*%
%LPC*%
G36*
X283745Y180419D02*
X283745Y180419D01*
X280040Y181954D01*
X277204Y184790D01*
X275669Y188495D01*
X275669Y192505D01*
X277204Y196210D01*
X280040Y199046D01*
X283745Y200581D01*
X287755Y200581D01*
X291460Y199046D01*
X294296Y196210D01*
X295831Y192505D01*
X295831Y188495D01*
X294296Y184790D01*
X291460Y181954D01*
X287755Y180419D01*
X283745Y180419D01*
G37*
%LPD*%
%LPC*%
G36*
X93245Y870982D02*
X93245Y870982D01*
X89540Y872516D01*
X86704Y875352D01*
X85169Y879057D01*
X85169Y883068D01*
X86704Y886773D01*
X89540Y889609D01*
X93245Y891143D01*
X97255Y891143D01*
X100960Y889609D01*
X103796Y886773D01*
X105331Y883068D01*
X105331Y879057D01*
X103796Y875352D01*
X100960Y872516D01*
X97255Y870982D01*
X93245Y870982D01*
G37*
%LPD*%
%LPC*%
G36*
X283745Y870982D02*
X283745Y870982D01*
X280040Y872516D01*
X277204Y875352D01*
X275669Y879057D01*
X275669Y883068D01*
X277204Y886773D01*
X280040Y889609D01*
X283745Y891143D01*
X287755Y891143D01*
X291460Y889609D01*
X294296Y886773D01*
X295831Y883068D01*
X295831Y879057D01*
X294296Y875352D01*
X291460Y872516D01*
X287755Y870982D01*
X283745Y870982D01*
G37*
%LPD*%
%LPC*%
G36*
X-135671Y885761D02*
X-135671Y885761D01*
X-135470Y887033D01*
X-134889Y888820D01*
X-134036Y890495D01*
X-132931Y892015D01*
X-131603Y893344D01*
X-130082Y894448D01*
X-128408Y895302D01*
X-126621Y895882D01*
X-125348Y896084D01*
X-125348Y885761D01*
X-135671Y885761D01*
G37*
%LPD*%
%LPC*%
G36*
X-135671Y911161D02*
X-135671Y911161D01*
X-135470Y912433D01*
X-134889Y914220D01*
X-134036Y915895D01*
X-132931Y917415D01*
X-131603Y918744D01*
X-130082Y919848D01*
X-128408Y920702D01*
X-126621Y921282D01*
X-125348Y921484D01*
X-125348Y911161D01*
X-135671Y911161D01*
G37*
%LPD*%
%LPC*%
G36*
X30098Y936561D02*
X30098Y936561D01*
X30098Y946884D01*
X31371Y946682D01*
X33158Y946102D01*
X34832Y945248D01*
X36353Y944144D01*
X37681Y942815D01*
X38786Y941295D01*
X39639Y939620D01*
X40220Y937833D01*
X40421Y936561D01*
X30098Y936561D01*
G37*
%LPD*%
%LPC*%
G36*
X-122302Y911161D02*
X-122302Y911161D01*
X-122302Y921484D01*
X-121029Y921282D01*
X-119242Y920702D01*
X-117568Y919848D01*
X-116047Y918744D01*
X-114719Y917415D01*
X-113614Y915895D01*
X-112761Y914220D01*
X-112180Y912433D01*
X-111979Y911161D01*
X-122302Y911161D01*
G37*
%LPD*%
%LPC*%
G36*
X16729Y936561D02*
X16729Y936561D01*
X16930Y937833D01*
X17511Y939620D01*
X18364Y941295D01*
X19469Y942815D01*
X20797Y944144D01*
X22318Y945248D01*
X23992Y946102D01*
X25779Y946682D01*
X27052Y946884D01*
X27052Y936561D01*
X16729Y936561D01*
G37*
%LPD*%
%LPC*%
G36*
X-126621Y872593D02*
X-126621Y872593D01*
X-128408Y873173D01*
X-130082Y874027D01*
X-131603Y875131D01*
X-132931Y876460D01*
X-134036Y877980D01*
X-134889Y879655D01*
X-135470Y881442D01*
X-135671Y882714D01*
X-125348Y882714D01*
X-125348Y872391D01*
X-126621Y872593D01*
G37*
%LPD*%
%LPC*%
G36*
X-122302Y885761D02*
X-122302Y885761D01*
X-122302Y896084D01*
X-121029Y895882D01*
X-119242Y895302D01*
X-117568Y894448D01*
X-116047Y893344D01*
X-114719Y892015D01*
X-113614Y890495D01*
X-112761Y888820D01*
X-112180Y887033D01*
X-111979Y885761D01*
X-122302Y885761D01*
G37*
%LPD*%
%LPC*%
G36*
X-126621Y897993D02*
X-126621Y897993D01*
X-128408Y898573D01*
X-130082Y899427D01*
X-131603Y900531D01*
X-132931Y901860D01*
X-134036Y903380D01*
X-134889Y905055D01*
X-135470Y906842D01*
X-135671Y908114D01*
X-125348Y908114D01*
X-125348Y897791D01*
X-126621Y897993D01*
G37*
%LPD*%
%LPC*%
G36*
X25779Y923393D02*
X25779Y923393D01*
X23992Y923973D01*
X22318Y924827D01*
X20797Y925931D01*
X19469Y927260D01*
X18364Y928780D01*
X17511Y930455D01*
X16930Y932242D01*
X16729Y933514D01*
X27052Y933514D01*
X27052Y923191D01*
X25779Y923393D01*
G37*
%LPD*%
%LPC*%
G36*
X-122302Y908114D02*
X-122302Y908114D01*
X-111979Y908114D01*
X-112180Y906842D01*
X-112761Y905055D01*
X-113614Y903380D01*
X-114719Y901860D01*
X-116047Y900531D01*
X-117568Y899427D01*
X-119242Y898573D01*
X-121029Y897993D01*
X-122302Y897791D01*
X-122302Y908114D01*
G37*
%LPD*%
%LPC*%
G36*
X-122302Y882714D02*
X-122302Y882714D01*
X-111979Y882714D01*
X-112180Y881442D01*
X-112761Y879655D01*
X-113614Y877980D01*
X-114719Y876460D01*
X-116047Y875131D01*
X-117568Y874027D01*
X-119242Y873173D01*
X-121029Y872593D01*
X-122302Y872391D01*
X-122302Y882714D01*
G37*
%LPD*%
%LPC*%
G36*
X217723Y964023D02*
X217723Y964023D01*
X217723Y968541D01*
X223784Y968541D01*
X224431Y968368D01*
X225010Y968033D01*
X225483Y967560D01*
X225818Y966981D01*
X225991Y966334D01*
X225991Y964023D01*
X217723Y964023D01*
G37*
%LPD*%
%LPC*%
G36*
X166323Y964023D02*
X166323Y964023D01*
X166323Y968541D01*
X172384Y968541D01*
X173031Y968368D01*
X173610Y968033D01*
X174083Y967560D01*
X174418Y966981D01*
X174591Y966334D01*
X174591Y964023D01*
X166323Y964023D01*
G37*
%LPD*%
%LPC*%
G36*
X155009Y964023D02*
X155009Y964023D01*
X155009Y966334D01*
X155182Y966981D01*
X155517Y967560D01*
X155990Y968033D01*
X156569Y968368D01*
X157216Y968541D01*
X163277Y968541D01*
X163277Y964023D01*
X155009Y964023D01*
G37*
%LPD*%
%LPC*%
G36*
X206409Y964023D02*
X206409Y964023D01*
X206409Y966334D01*
X206582Y966981D01*
X206917Y967560D01*
X207390Y968033D01*
X207969Y968368D01*
X208616Y968541D01*
X214677Y968541D01*
X214677Y964023D01*
X206409Y964023D01*
G37*
%LPD*%
%LPC*%
G36*
X166323Y956459D02*
X166323Y956459D01*
X166323Y960977D01*
X174591Y960977D01*
X174591Y958666D01*
X174418Y958019D01*
X174083Y957440D01*
X173610Y956967D01*
X173031Y956632D01*
X172384Y956459D01*
X166323Y956459D01*
G37*
%LPD*%
%LPC*%
G36*
X217723Y956459D02*
X217723Y956459D01*
X217723Y960977D01*
X225991Y960977D01*
X225991Y958666D01*
X225818Y958019D01*
X225483Y957440D01*
X225010Y956967D01*
X224431Y956632D01*
X223784Y956459D01*
X217723Y956459D01*
G37*
%LPD*%
%LPC*%
G36*
X157216Y956459D02*
X157216Y956459D01*
X156569Y956632D01*
X155990Y956967D01*
X155517Y957440D01*
X155182Y958019D01*
X155009Y958666D01*
X155009Y960977D01*
X163277Y960977D01*
X163277Y956459D01*
X157216Y956459D01*
G37*
%LPD*%
%LPC*%
G36*
X208616Y956459D02*
X208616Y956459D01*
X207969Y956632D01*
X207390Y956967D01*
X206917Y957440D01*
X206582Y958019D01*
X206409Y958666D01*
X206409Y960977D01*
X214677Y960977D01*
X214677Y956459D01*
X208616Y956459D01*
G37*
%LPD*%
%LPC*%
G36*
X-123826Y909637D02*
X-123826Y909637D01*
X-123826Y909638D01*
X-123824Y909638D01*
X-123824Y909637D01*
X-123826Y909637D01*
G37*
%LPD*%
%LPC*%
G36*
X-123826Y884237D02*
X-123826Y884237D01*
X-123826Y884238D01*
X-123824Y884238D01*
X-123824Y884237D01*
X-123826Y884237D01*
G37*
%LPD*%
%LPC*%
G36*
X28574Y935037D02*
X28574Y935037D01*
X28574Y935038D01*
X28576Y935038D01*
X28576Y935037D01*
X28574Y935037D01*
G37*
%LPD*%
%LPC*%
G36*
X216199Y962499D02*
X216199Y962499D01*
X216199Y962501D01*
X216201Y962501D01*
X216201Y962499D01*
X216199Y962499D01*
G37*
%LPD*%
%LPC*%
G36*
X164799Y962499D02*
X164799Y962499D01*
X164799Y962501D01*
X164801Y962501D01*
X164801Y962499D01*
X164799Y962499D01*
G37*
%LPD*%
D10*
X-38100Y596900D03*
X25400Y622300D03*
X152400Y596900D03*
X215900Y622300D03*
X342900Y596900D03*
X406400Y622300D03*
X342900Y406400D03*
X406400Y431800D03*
X152400Y406400D03*
X215900Y431800D03*
X-38100Y406400D03*
X25400Y431800D03*
X-38100Y215900D03*
X25400Y241300D03*
X152400Y215900D03*
X215900Y241300D03*
X342900Y215900D03*
X406400Y241300D03*
X152400Y787400D03*
X215900Y812800D03*
D11*
X-48200Y476250D03*
D12*
X48200Y476250D03*
D11*
X142300Y476250D03*
D12*
X238700Y476250D03*
D11*
X332800Y476250D03*
D12*
X429200Y476250D03*
D11*
X332800Y285750D03*
D12*
X429200Y285750D03*
D11*
X142300Y285750D03*
D12*
X238700Y285750D03*
D11*
X-48200Y285750D03*
D12*
X48200Y285750D03*
D11*
X-48200Y95250D03*
D12*
X48200Y95250D03*
D11*
X142300Y95250D03*
D12*
X238700Y95250D03*
D11*
X332800Y95250D03*
D12*
X429200Y95250D03*
D11*
X142300Y666750D03*
D12*
X238700Y666750D03*
D13*
X-123825Y960438D03*
X-123825Y935038D03*
X-123825Y909638D03*
X-123825Y884238D03*
X-123825Y858838D03*
X-123825Y833438D03*
X-123825Y808038D03*
X-123825Y782638D03*
X-123825Y757238D03*
X-123825Y731838D03*
X-123825Y706438D03*
X-123825Y681038D03*
X28575Y681038D03*
X28575Y706438D03*
X28575Y731838D03*
X28575Y757238D03*
X28575Y782638D03*
X28575Y808038D03*
X28575Y833438D03*
X28575Y858838D03*
X28575Y884238D03*
X28575Y909638D03*
X28575Y935038D03*
X28575Y960438D03*
D14*
X164800Y962500D03*
X164800Y942500D03*
X216200Y942500D03*
X216200Y962500D03*
D15*
X-38100Y596900D02*
X-34934Y593734D01*
X-34934Y489516D01*
X-48200Y476250D01*
X152400Y596900D02*
X155566Y593734D01*
X155566Y489516D01*
X142300Y476250D01*
X342900Y596900D02*
X346066Y593734D01*
X346066Y489516D01*
X332800Y476250D01*
X342900Y406400D02*
X346066Y403234D01*
X346066Y299016D01*
X332800Y285750D01*
X155566Y403234D02*
X152400Y406400D01*
X155566Y403234D02*
X155566Y299016D01*
X142300Y285750D01*
X-34934Y403234D02*
X-38100Y406400D01*
X-34934Y403234D02*
X-34934Y299016D01*
X-48200Y285750D01*
X-38100Y215900D02*
X-34934Y212734D01*
X-34934Y108516D01*
X-48200Y95250D01*
X152400Y215900D02*
X155566Y212734D01*
X155566Y108516D01*
X142300Y95250D01*
X342900Y215900D02*
X346066Y212734D01*
X346066Y108516D01*
X332800Y95250D01*
X155566Y784234D02*
X152400Y787400D01*
X155566Y784234D02*
X155566Y680016D01*
X142300Y666750D01*
X27366Y433766D02*
X25400Y431800D01*
X27366Y433766D02*
X27366Y620334D01*
X25400Y431800D02*
X27366Y429834D01*
X27366Y243266D01*
X25400Y241300D01*
X27366Y620334D02*
X25400Y622300D01*
X11113Y622300D02*
X-123825Y757238D01*
X11113Y622300D02*
X25400Y622300D01*
X215900Y622300D02*
X217866Y624266D01*
X217866Y810834D01*
X215900Y812800D01*
X215900Y622300D02*
X217866Y620334D01*
X217866Y433766D01*
X215900Y431800D01*
X217866Y429834D01*
X217866Y243266D01*
X215900Y241300D01*
X62689Y241300D01*
X47703Y226314D01*
X-11997Y226314D01*
X-111192Y325508D01*
X-111192Y719204D01*
X-123825Y731838D01*
X406400Y431800D02*
X408366Y429834D01*
X408366Y243266D01*
X406400Y241300D01*
X408366Y620334D02*
X406400Y622300D01*
X408366Y620334D02*
X408366Y433766D01*
X406400Y431800D01*
X406400Y241300D02*
X253189Y241300D01*
X238203Y226314D01*
X171689Y226314D01*
X167117Y230886D01*
X62455Y230886D01*
X54835Y223266D01*
X-13260Y223266D01*
X-135509Y345515D01*
X-135509Y694754D01*
X-123825Y706438D01*
X164800Y962500D02*
X216200Y962500D01*
X164800Y962500D02*
X50671Y962501D01*
X28575Y940405D01*
X28575Y935038D01*
X3175Y909638D01*
X-123825Y909638D01*
X-123825Y884238D01*
X52561Y942500D02*
X164800Y942500D01*
X52561Y942500D02*
X28575Y918514D01*
X28575Y909638D01*
X164800Y942500D02*
X216200Y942500D01*
M02*
