G04 EAGLE Gerber RS-274X export*
G75*
%MOMM*%
%FSLAX34Y34*%
%LPD*%
%INBottom Copper*%
%IPPOS*%
%AMOC8*
5,1,8,0,0,1.08239X$1,22.5*%
G01*
%ADD10C,2.540000*%
%ADD11R,2.000000X2.000000*%
%ADD12C,2.000000*%
%ADD13C,1.879600*%
%ADD14C,0.152400*%


D10*
X-38100Y596900D03*
X25400Y622300D03*
X152400Y596900D03*
X215900Y622300D03*
X342900Y596900D03*
X406400Y622300D03*
X342900Y406400D03*
X406400Y431800D03*
X152400Y406400D03*
X215900Y431800D03*
X-38100Y406400D03*
X25400Y431800D03*
X-38100Y215900D03*
X25400Y241300D03*
X152400Y215900D03*
X215900Y241300D03*
X342900Y215900D03*
X406400Y241300D03*
X152400Y787400D03*
X215900Y812800D03*
D11*
X-48200Y476250D03*
D12*
X48200Y476250D03*
D11*
X142300Y476250D03*
D12*
X238700Y476250D03*
D11*
X332800Y476250D03*
D12*
X429200Y476250D03*
D11*
X332800Y285750D03*
D12*
X429200Y285750D03*
D11*
X142300Y285750D03*
D12*
X238700Y285750D03*
D11*
X-48200Y285750D03*
D12*
X48200Y285750D03*
D11*
X-48200Y95250D03*
D12*
X48200Y95250D03*
D11*
X142300Y95250D03*
D12*
X238700Y95250D03*
D11*
X332800Y95250D03*
D12*
X429200Y95250D03*
D11*
X142300Y666750D03*
D12*
X238700Y666750D03*
D13*
X-123825Y960438D03*
X-123825Y935038D03*
X-123825Y909638D03*
X-123825Y884238D03*
X-123825Y858838D03*
X-123825Y833438D03*
X-123825Y808038D03*
X-123825Y782638D03*
X-123825Y757238D03*
X-123825Y731838D03*
X-123825Y706438D03*
X-123825Y681038D03*
X28575Y681038D03*
X28575Y706438D03*
X28575Y731838D03*
X28575Y757238D03*
X28575Y782638D03*
X28575Y808038D03*
X28575Y833438D03*
X28575Y858838D03*
X28575Y884238D03*
X28575Y909638D03*
X28575Y935038D03*
X28575Y960438D03*
D14*
X226414Y488536D02*
X238700Y476250D01*
X226414Y488536D02*
X60486Y488536D01*
X48200Y476250D01*
X416914Y488536D02*
X429200Y476250D01*
X416914Y488536D02*
X250986Y488536D01*
X238700Y476250D01*
X48200Y476250D02*
X24388Y500063D01*
X-88329Y500063D01*
X-114752Y833438D02*
X-123825Y833438D01*
X-114752Y833438D02*
X-88329Y807014D01*
X-88329Y500063D01*
X226414Y298036D02*
X238700Y285750D01*
X226414Y298036D02*
X60486Y298036D01*
X48200Y285750D01*
X416914Y298036D02*
X429200Y285750D01*
X416914Y298036D02*
X250986Y298036D01*
X238700Y285750D01*
X-123825Y808038D02*
X-122238Y809625D01*
X-95250Y809625D01*
X-95250Y309563D01*
X24388Y309563D02*
X48200Y285750D01*
X24388Y309563D02*
X-95250Y309563D01*
X226414Y107536D02*
X238700Y95250D01*
X226414Y107536D02*
X60486Y107536D01*
X48200Y95250D01*
X-123825Y782638D02*
X-120650Y785813D01*
X-98298Y785813D01*
X-98298Y122111D01*
X-95250Y119063D01*
X24388Y119063D02*
X48200Y95250D01*
X24388Y119063D02*
X-95250Y119063D01*
X416914Y82964D02*
X429200Y95250D01*
X250986Y82964D02*
X238700Y95250D01*
X250986Y82964D02*
X416914Y82964D01*
X12051Y858838D02*
X-123825Y858838D01*
X33909Y847154D02*
X95250Y785813D01*
X23735Y847154D02*
X12051Y858838D01*
X23735Y847154D02*
X33909Y847154D01*
X226414Y679036D02*
X238700Y666750D01*
X226414Y679036D02*
X106777Y679036D01*
X95250Y690563D01*
X95250Y785813D01*
M02*
