G04 EAGLE Gerber RS-274X export*
G75*
%MOMM*%
%FSLAX34Y34*%
%LPD*%
%INSoldermask Top*%
%IPPOS*%
%AMOC8*
5,1,8,0,0,1.08239X$1,22.5*%
G01*
%ADD10C,1.203200*%
%ADD11C,4.203200*%
%ADD12C,1.903200*%
%ADD13C,2.743200*%
%ADD14R,2.203200X2.203200*%
%ADD15C,2.203200*%
%ADD16C,2.082800*%
%ADD17R,1.653200X0.903200*%


D10*
X95250Y881063D03*
X95250Y190500D03*
X285750Y190500D03*
X285750Y881063D03*
D11*
X0Y571500D03*
D12*
X-50800Y571500D03*
X50800Y571500D03*
D13*
X-38100Y596900D03*
X25400Y622300D03*
D11*
X190500Y571500D03*
D12*
X139700Y571500D03*
X241300Y571500D03*
D13*
X152400Y596900D03*
X215900Y622300D03*
D11*
X381000Y571500D03*
D12*
X330200Y571500D03*
X431800Y571500D03*
D13*
X342900Y596900D03*
X406400Y622300D03*
D11*
X381000Y381000D03*
D12*
X330200Y381000D03*
X431800Y381000D03*
D13*
X342900Y406400D03*
X406400Y431800D03*
D11*
X190500Y381000D03*
D12*
X139700Y381000D03*
X241300Y381000D03*
D13*
X152400Y406400D03*
X215900Y431800D03*
D11*
X0Y381000D03*
D12*
X-50800Y381000D03*
X50800Y381000D03*
D13*
X-38100Y406400D03*
X25400Y431800D03*
D11*
X0Y190500D03*
D12*
X-50800Y190500D03*
X50800Y190500D03*
D13*
X-38100Y215900D03*
X25400Y241300D03*
D11*
X190500Y190500D03*
D12*
X139700Y190500D03*
X241300Y190500D03*
D13*
X152400Y215900D03*
X215900Y241300D03*
D11*
X381000Y190500D03*
D12*
X330200Y190500D03*
X431800Y190500D03*
D13*
X342900Y215900D03*
X406400Y241300D03*
D11*
X190500Y762000D03*
D12*
X139700Y762000D03*
X241300Y762000D03*
D13*
X152400Y787400D03*
X215900Y812800D03*
D14*
X-48200Y476250D03*
D15*
X48200Y476250D03*
D14*
X142300Y476250D03*
D15*
X238700Y476250D03*
D14*
X332800Y476250D03*
D15*
X429200Y476250D03*
D14*
X332800Y285750D03*
D15*
X429200Y285750D03*
D14*
X142300Y285750D03*
D15*
X238700Y285750D03*
D14*
X-48200Y285750D03*
D15*
X48200Y285750D03*
D14*
X-48200Y95250D03*
D15*
X48200Y95250D03*
D14*
X142300Y95250D03*
D15*
X238700Y95250D03*
D14*
X332800Y95250D03*
D15*
X429200Y95250D03*
D14*
X142300Y666750D03*
D15*
X238700Y666750D03*
D16*
X-123825Y960438D03*
X-123825Y935038D03*
X-123825Y909638D03*
X-123825Y884238D03*
X-123825Y858838D03*
X-123825Y833438D03*
X-123825Y808038D03*
X-123825Y782638D03*
X-123825Y757238D03*
X-123825Y731838D03*
X-123825Y706438D03*
X-123825Y681038D03*
X28575Y681038D03*
X28575Y706438D03*
X28575Y731838D03*
X28575Y757238D03*
X28575Y782638D03*
X28575Y808038D03*
X28575Y833438D03*
X28575Y858838D03*
X28575Y884238D03*
X28575Y909638D03*
X28575Y935038D03*
X28575Y960438D03*
D17*
X164800Y962500D03*
X164800Y942500D03*
X216200Y942500D03*
X216200Y962500D03*
M02*
