M48
;GenerationSoftware,Autodesk,EAGLE,9.6.2*%
;CreationDate,2020-11-17T11:20:53Z*%
FMAT,2
ICI,OFF
METRIC,TZ,000.000
T6C1.000
T5C1.016
T4C1.300
T3C1.700
T2C4.000
%
G90
M71
T2
X38100Y38100
X0Y19050
X0Y38100
X19050Y19050
X19050Y38100
X38100Y19050
X38100Y57150
X19050Y76200
X19050Y57150
X0Y57150
T3
X43180Y19050
X33020Y19050
X-5080Y57150
X24130Y19050
X13970Y76200
X13970Y19050
X24130Y76200
X5080Y19050
X-5080Y19050
X-5080Y38100
X5080Y38100
X5080Y57150
X13970Y57150
X24130Y57150
X33020Y57150
X43180Y57150
X33020Y38100
X43180Y38100
X13970Y38100
X24130Y38100
T4
X15240Y40640
X21590Y43180
X-3810Y40640
X2540Y43180
X-3810Y21590
X2540Y24130
X15240Y21590
X21590Y24130
X34290Y21590
X40640Y24130
X15240Y78740
X21590Y81280
X34290Y40640
X40640Y62230
X34290Y59690
X21590Y62230
X15240Y59690
X2540Y62230
X-3810Y59690
X40640Y43180
T5
X-12382Y70644
X-12382Y96044
X-12382Y73184
X-12382Y75724
X-12382Y78264
X-12382Y80804
X-12382Y83344
X-12382Y85884
X-12382Y88424
X-12382Y90964
X-12382Y93504
X2857Y96044
X-12382Y68104
X2857Y68104
X2857Y70644
X2857Y73184
X2857Y75724
X2857Y78264
X2857Y80804
X2857Y83344
X2857Y85884
X2857Y88424
X2857Y90964
X2857Y93504
T6
X42920Y28575
X28575Y88106
X28575Y19050
X9525Y19050
X9525Y88106
X-4820Y47625
X4820Y47625
X14230Y47625
X23870Y47625
X33280Y47625
X42920Y47625
X33280Y28575
X23870Y66675
X14230Y28575
X23870Y28575
X-4820Y28575
X4820Y28575
X-4820Y9525
X4820Y9525
X14230Y9525
X23870Y9525
X33280Y9525
X42920Y9525
X14230Y66675
M30